  0
SECTION
  2
HEADER
  9
$ACADVER
  1
AC1014
  9
$HANDSEED
  5
FFFF
  9
$MEASUREMENT
 70
     1
  0
ENDSEC
  0
SECTION
  2
TABLES
  0
TABLE
  2
VPORT
  5
8
330
0
100
AcDbSymbolTable
 70
     4
  0
VPORT
  5
2E
330
8
100
AcDbSymbolTableRecord
100
AcDbViewportTableRecord
  2
*ACTIVE
 70
     0
 10
0.0
 20
0.0
 11
1.0
 21
1.0
 12
210.0
 22
148.5
 13
0.0
 23
0.0
 14
10.0
 24
10.0
 15
10.0
 25
10.0
 16
0.0
 26
0.0
 36
1.0
 17
0.0
 27
0.0
 37
0.0
 40
341.0
 41
1.24
 42
50.0
 43
0.0
 44
0.0
 50
0.0
 51
0.0
 71
     0
 72
   100
 73
     1
 74
     3
 75
     0
 76
     0
 77
     0
 78
     0
  0
ENDTAB
  0
TABLE
  2
LTYPE
  5
5
330
0
100
AcDbSymbolTable
 70
     1
  0
LTYPE
  5
14
330
5
100
AcDbSymbolTableRecord
100
AcDbLinetypeTableRecord
  2
BYBLOCK
 70
     0
  3

 72
    65
 73
     0
 40
0.0
  0
LTYPE
  5
15
330
5
100
AcDbSymbolTableRecord
100
AcDbLinetypeTableRecord
  2
BYLAYER
 70
     0
  3

 72
    65
 73
     0
 40
0.0
  0
LTYPE
  5
16
330
5
100
AcDbSymbolTableRecord
100
AcDbLinetypeTableRecord
  2
CONTINUOUS
 70
     0
  3
Solid line
 72
    65
 73
     0
 40
0.0
  0
ENDTAB
  0
TABLE
  2
LAYER
  5
2
100
AcDbSymbolTable
 70
1
  0
LAYER
  5
50
100
AcDbSymbolTableRecord
100
AcDbLayerTableRecord
  2
0
 70
0
  6
CONTINUOUS
  0
ENDTAB
  0
TABLE
  2
STYLE
  5
3
330
0
100
AcDbSymbolTable
 70
     1
  0
STYLE
  5
11
330
3
100
AcDbSymbolTableRecord
100
AcDbTextStyleTableRecord
  2
STANDARD
 70
     0
 40
0.0
 41
1.0
 50
0.0
 71
     0
 42
2.5
  3
txt
  4

  0
ENDTAB
  0
TABLE
  2
VIEW
  5
6
330
0
100
AcDbSymbolTable
 70
     0
  0
ENDTAB
  0
TABLE
  2
UCS
  5
7
330
0
100
AcDbSymbolTable
 70
     0
  0
ENDTAB
  0
TABLE
  2
APPID
  5
9
330
0
100
AcDbSymbolTable
 70
     2
  0
APPID
  5
12
330
9
100
AcDbSymbolTableRecord
100
AcDbRegAppTableRecord
  2
ACAD
 70
     0
  0
ENDTAB
  0
TABLE
  2
DIMSTYLE
  5
A
330
0
100
AcDbSymbolTable
 70
     1
  0
DIMSTYLE
105
27
330
A
100
AcDbSymbolTableRecord
100
AcDbDimStyleTableRecord
  2
ISO-25
 70
     0
  3

  4

  5

  6

  7

 40
1.0
 41
2.5
 42
0.625
 43
3.75
 44
1.25
 45
0.0
 46
0.0
 47
0.0
 48
0.0
140
2.5
141
2.5
142
0.0
143
0.03937007874016
144
1.0
145
0.0
146
1.0
147
0.625
 71
     0
 72
     0
 73
     0
 74
     0
 75
     0
 76
     0
 77
     1
 78
     8
170
     0
171
     3
172
     1
173
     0
174
     0
175
     0
176
     0
177
     0
178
     0
270
     2
271
     2
272
     2
273
     2
274
     3
340
11
275
     0
280
     0
281
     0
282
     0
283
     0
284
     8
285
     0
286
     0
287
     3
288
     0
  0
ENDTAB
  0
TABLE
  2
BLOCK_RECORD
  5
1
330
0
100
AcDbSymbolTable
 70
     1
  0
BLOCK_RECORD
  5
1F
330
1
100
AcDbSymbolTableRecord
100
AcDbBlockTableRecord
  2
*MODEL_SPACE
  0
BLOCK_RECORD
  5
1B
330
1
100
AcDbSymbolTableRecord
100
AcDbBlockTableRecord
  2
*PAPER_SPACE
  0
ENDTAB
  0
ENDSEC
  0
SECTION
  2
BLOCKS
  0
BLOCK
  5
20
330
1F
100
AcDbEntity
  8
0
100
AcDbBlockBegin
  2
*MODEL_SPACE
 70
     0
 10
0.0
 20
0.0
 30
0.0
  3
*MODEL_SPACE
  1

  0
ENDBLK
  5
21
330
1F
100
AcDbEntity
  8
0
100
AcDbBlockEnd
  0
BLOCK
  5
1C
330
1B
100
AcDbEntity
 67
     1
  8
0
100
AcDbBlockBegin
  2
*PAPER_SPACE
  1

  0
ENDBLK
  5
1D
330
1B
100
AcDbEntity
 67
     1
  8
0
100
AcDbBlockEnd
  0
ENDSEC
  0
SECTION
  2
ENTITIES
  0
SPLINE
  5
100
100
AcDbEntity
  8
0
 62
7
100
AcDbSpline
 70
8
 71
3
 72
8
 73
4
 74
0
 40
0
 40
0
 40
0
 40
0
 40
1
 40
1
 40
1
 40
1
 10
4.217187
 20
-85.234221
 30
0.0
 10
3.155479
 20
-85.234221
 30
0.0
 10
2.198313
 20
-85.873779
 30
0.0
 10
1.792014
 20
-86.854670
 30
0.0
  0
SPLINE
  5
101
100
AcDbEntity
  8
0
 62
7
100
AcDbSpline
 70
8
 71
3
 72
8
 73
4
 74
0
 40
0
 40
0
 40
0
 40
0
 40
1
 40
1
 40
1
 40
1
 10
1.792014
 20
-86.854670
 30
0.0
 10
1.385716
 20
-87.835561
 30
0.0
 10
1.610299
 20
-88.964615
 30
0.0
 10
2.361040
 20
-89.715357
 30
0.0
  0
SPLINE
  5
102
100
AcDbEntity
  8
0
 62
7
100
AcDbSpline
 70
8
 71
3
 72
8
 73
4
 74
0
 40
0
 40
0
 40
0
 40
0
 40
1
 40
1
 40
1
 40
1
 10
2.361040
 20
-89.715357
 30
0.0
 10
3.111782
 20
-90.466098
 30
0.0
 10
4.240836
 20
-90.690681
 30
0.0
 10
5.221727
 20
-90.284383
 30
0.0
  0
SPLINE
  5
103
100
AcDbEntity
  8
0
 62
7
100
AcDbSpline
 70
8
 71
3
 72
8
 73
4
 74
0
 40
0
 40
0
 40
0
 40
0
 40
1
 40
1
 40
1
 40
1
 10
5.221727
 20
-90.284383
 30
0.0
 10
6.202618
 20
-89.878084
 30
0.0
 10
6.842176
 20
-88.920918
 30
0.0
 10
6.842176
 20
-87.859210
 30
0.0
  0
SPLINE
  5
104
100
AcDbEntity
  8
0
 62
7
100
AcDbSpline
 70
8
 71
3
 72
8
 73
4
 74
0
 40
0
 40
0
 40
0
 40
0
 40
1
 40
1
 40
1
 40
1
 10
6.842176
 20
-87.859210
 30
0.0
 10
6.842176
 20
-87.163019
 30
0.0
 10
6.565615
 20
-86.495343
 30
0.0
 10
6.073334
 20
-86.003063
 30
0.0
  0
SPLINE
  5
105
100
AcDbEntity
  8
0
 62
7
100
AcDbSpline
 70
8
 71
3
 72
8
 73
4
 74
0
 40
0
 40
0
 40
0
 40
0
 40
1
 40
1
 40
1
 40
1
 10
6.073334
 20
-86.003063
 30
0.0
 10
5.581054
 20
-85.510782
 30
0.0
 10
4.913378
 20
-85.234221
 30
0.0
 10
4.217187
 20
-85.234221
 30
0.0
  0
LWPOLYLINE
  5
106
100
AcDbEntity
  8
0
 62
7
100
AcDbPolyline
 90
2
 70
0
 10
184.000140
 20
0.844194
 30
0.0
 10
4.216400
 20
0.844194
 30
0.0
  0
LWPOLYLINE
  5
107
100
AcDbEntity
  8
0
 62
7
100
AcDbPolyline
 90
1
 70
1
 10
4.217187
 20
-85.234221
 30
0.0
  0
SPLINE
  5
108
100
AcDbEntity
  8
0
 62
7
100
AcDbSpline
 70
8
 71
3
 72
8
 73
4
 74
0
 40
0
 40
0
 40
0
 40
0
 40
1
 40
1
 40
1
 40
1
 10
0.050001
 20
-87.859210
 30
0.0
 10
0.050043
 20
-90.160656
 30
0.0
 10
1.915741
 20
-92.026326
 30
0.0
 10
4.217187
 20
-92.026334
 30
0.0
  0
SPLINE
  5
109
100
AcDbEntity
  8
0
 62
7
100
AcDbSpline
 70
8
 71
3
 72
8
 73
4
 74
0
 40
0
 40
0
 40
0
 40
0
 40
1
 40
1
 40
1
 40
1
 10
184.001664
 20
-92.026334
 30
0.0
 10
186.303086
 20
-92.026292
 30
0.0
 10
188.168746
 20
-90.160631
 30
0.0
 10
188.168788
 20
-87.859210
 30
0.0
  0
SPLINE
  5
10a
100
AcDbEntity
  8
0
 62
7
100
AcDbSpline
 70
8
 71
3
 72
8
 73
4
 74
0
 40
0
 40
0
 40
0
 40
0
 40
1
 40
1
 40
1
 40
1
 10
94.109540
 20
-85.234221
 30
0.0
 10
93.047831
 20
-85.234221
 30
0.0
 10
92.090665
 20
-85.873779
 30
0.0
 10
91.684367
 20
-86.854670
 30
0.0
  0
SPLINE
  5
10b
100
AcDbEntity
  8
0
 62
7
100
AcDbSpline
 70
8
 71
3
 72
8
 73
4
 74
0
 40
0
 40
0
 40
0
 40
0
 40
1
 40
1
 40
1
 40
1
 10
91.684367
 20
-86.854670
 30
0.0
 10
91.278069
 20
-87.835561
 30
0.0
 10
91.502651
 20
-88.964615
 30
0.0
 10
92.253393
 20
-89.715357
 30
0.0
  0
SPLINE
  5
10c
100
AcDbEntity
  8
0
 62
7
100
AcDbSpline
 70
8
 71
3
 72
8
 73
4
 74
0
 40
0
 40
0
 40
0
 40
0
 40
1
 40
1
 40
1
 40
1
 10
92.253393
 20
-89.715357
 30
0.0
 10
93.004134
 20
-90.466098
 30
0.0
 10
94.133189
 20
-90.690681
 30
0.0
 10
95.114080
 20
-90.284383
 30
0.0
  0
SPLINE
  5
10d
100
AcDbEntity
  8
0
 62
7
100
AcDbSpline
 70
8
 71
3
 72
8
 73
4
 74
0
 40
0
 40
0
 40
0
 40
0
 40
1
 40
1
 40
1
 40
1
 10
95.114080
 20
-90.284383
 30
0.0
 10
96.094971
 20
-89.878084
 30
0.0
 10
96.734528
 20
-88.920918
 30
0.0
 10
96.734528
 20
-87.859210
 30
0.0
  0
SPLINE
  5
10e
100
AcDbEntity
  8
0
 62
7
100
AcDbSpline
 70
8
 71
3
 72
8
 73
4
 74
0
 40
0
 40
0
 40
0
 40
0
 40
1
 40
1
 40
1
 40
1
 10
96.734528
 20
-87.859210
 30
0.0
 10
96.734528
 20
-87.163019
 30
0.0
 10
96.457968
 20
-86.495343
 30
0.0
 10
95.965687
 20
-86.003063
 30
0.0
  0
SPLINE
  5
10f
100
AcDbEntity
  8
0
 62
7
100
AcDbSpline
 70
8
 71
3
 72
8
 73
4
 74
0
 40
0
 40
0
 40
0
 40
0
 40
1
 40
1
 40
1
 40
1
 10
95.965687
 20
-86.003063
 30
0.0
 10
95.473406
 20
-85.510782
 30
0.0
 10
94.805730
 20
-85.234221
 30
0.0
 10
94.109540
 20
-85.234221
 30
0.0
  0
LWPOLYLINE
  5
110
100
AcDbEntity
  8
0
 62
7
100
AcDbPolyline
 90
2
 70
0
 10
0.048260
 20
-3.323946
 30
0.0
 10
0.048260
 20
-87.857686
 30
0.0
  0
SPLINE
  5
111
100
AcDbEntity
  8
0
 62
7
100
AcDbSpline
 70
8
 71
3
 72
8
 73
4
 74
0
 40
0
 40
0
 40
0
 40
0
 40
1
 40
1
 40
1
 40
1
 10
184.001664
 20
-85.234221
 30
0.0
 10
182.551923
 20
-85.234221
 30
0.0
 10
181.376676
 20
-86.409469
 30
0.0
 10
181.376676
 20
-87.859210
 30
0.0
  0
SPLINE
  5
112
100
AcDbEntity
  8
0
 62
7
100
AcDbSpline
 70
8
 71
3
 72
8
 73
4
 74
0
 40
0
 40
0
 40
0
 40
0
 40
1
 40
1
 40
1
 40
1
 10
181.376676
 20
-87.859210
 30
0.0
 10
181.376676
 20
-89.308951
 30
0.0
 10
182.551923
 20
-90.484198
 30
0.0
 10
184.001664
 20
-90.484198
 30
0.0
  0
SPLINE
  5
113
100
AcDbEntity
  8
0
 62
7
100
AcDbSpline
 70
8
 71
3
 72
8
 73
4
 74
0
 40
0
 40
0
 40
0
 40
0
 40
1
 40
1
 40
1
 40
1
 10
184.001664
 20
-90.484198
 30
0.0
 10
185.451405
 20
-90.484198
 30
0.0
 10
186.626652
 20
-89.308951
 30
0.0
 10
186.626652
 20
-87.859210
 30
0.0
  0
SPLINE
  5
114
100
AcDbEntity
  8
0
 62
7
100
AcDbSpline
 70
8
 71
3
 72
8
 73
4
 74
0
 40
0
 40
0
 40
0
 40
0
 40
1
 40
1
 40
1
 40
1
 10
186.626652
 20
-87.859210
 30
0.0
 10
186.626652
 20
-87.163019
 30
0.0
 10
186.350092
 20
-86.495343
 30
0.0
 10
185.857811
 20
-86.003063
 30
0.0
  0
SPLINE
  5
115
100
AcDbEntity
  8
0
 62
7
100
AcDbSpline
 70
8
 71
3
 72
8
 73
4
 74
0
 40
0
 40
0
 40
0
 40
0
 40
1
 40
1
 40
1
 40
1
 10
185.857811
 20
-86.003063
 30
0.0
 10
185.365530
 20
-85.510782
 30
0.0
 10
184.697854
 20
-85.234221
 30
0.0
 10
184.001664
 20
-85.234221
 30
0.0
  0
LWPOLYLINE
  5
116
100
AcDbEntity
  8
0
 62
7
100
AcDbPolyline
 90
1
 70
1
 10
94.109540
 20
-85.234221
 30
0.0
  0
LWPOLYLINE
  5
117
100
AcDbEntity
  8
0
 62
7
100
AcDbPolyline
 90
1
 70
1
 10
184.001664
 20
-85.234221
 30
0.0
  0
SPLINE
  5
118
100
AcDbEntity
  8
0
 62
7
100
AcDbSpline
 70
8
 71
3
 72
8
 73
4
 74
0
 40
0
 40
0
 40
0
 40
0
 40
1
 40
1
 40
1
 40
1
 10
4.217187
 20
-0.699745
 30
0.0
 10
3.155479
 20
-0.699745
 30
0.0
 10
2.198313
 20
-1.339302
 30
0.0
 10
1.792014
 20
-2.320193
 30
0.0
  0
SPLINE
  5
119
100
AcDbEntity
  8
0
 62
7
100
AcDbSpline
 70
8
 71
3
 72
8
 73
4
 74
0
 40
0
 40
0
 40
0
 40
0
 40
1
 40
1
 40
1
 40
1
 10
1.792014
 20
-2.320193
 30
0.0
 10
1.385716
 20
-3.301084
 30
0.0
 10
1.610299
 20
-4.430139
 30
0.0
 10
2.361040
 20
-5.180880
 30
0.0
  0
SPLINE
  5
11a
100
AcDbEntity
  8
0
 62
7
100
AcDbSpline
 70
8
 71
3
 72
8
 73
4
 74
0
 40
0
 40
0
 40
0
 40
0
 40
1
 40
1
 40
1
 40
1
 10
2.361040
 20
-5.180880
 30
0.0
 10
3.111782
 20
-5.931622
 30
0.0
 10
4.240836
 20
-6.156204
 30
0.0
 10
5.221727
 20
-5.749906
 30
0.0
  0
SPLINE
  5
11b
100
AcDbEntity
  8
0
 62
7
100
AcDbSpline
 70
8
 71
3
 72
8
 73
4
 74
0
 40
0
 40
0
 40
0
 40
0
 40
1
 40
1
 40
1
 40
1
 10
5.221727
 20
-5.749906
 30
0.0
 10
6.202618
 20
-5.343608
 30
0.0
 10
6.842176
 20
-4.386442
 30
0.0
 10
6.842176
 20
-3.324733
 30
0.0
  0
SPLINE
  5
11c
100
AcDbEntity
  8
0
 62
7
100
AcDbSpline
 70
8
 71
3
 72
8
 73
4
 74
0
 40
0
 40
0
 40
0
 40
0
 40
1
 40
1
 40
1
 40
1
 10
6.842176
 20
-3.324733
 30
0.0
 10
6.842176
 20
-2.628543
 30
0.0
 10
6.565615
 20
-1.960867
 30
0.0
 10
6.073334
 20
-1.468586
 30
0.0
  0
SPLINE
  5
11d
100
AcDbEntity
  8
0
 62
7
100
AcDbSpline
 70
8
 71
3
 72
8
 73
4
 74
0
 40
0
 40
0
 40
0
 40
0
 40
1
 40
1
 40
1
 40
1
 10
6.073334
 20
-1.468586
 30
0.0
 10
5.581054
 20
-0.976305
 30
0.0
 10
4.913378
 20
-0.699745
 30
0.0
 10
4.217187
 20
-0.699745
 30
0.0
  0
LWPOLYLINE
  5
11e
100
AcDbEntity
  8
0
 62
7
100
AcDbPolyline
 90
2
 70
0
 10
4.216400
 20
-92.025826
 30
0.0
 10
184.000140
 20
-92.025826
 30
0.0
  0
SPLINE
  5
11f
100
AcDbEntity
  8
0
 62
7
100
AcDbSpline
 70
8
 71
3
 72
8
 73
4
 74
0
 40
0
 40
0
 40
0
 40
0
 40
1
 40
1
 40
1
 40
1
 10
4.217187
 20
0.842453
 30
0.0
 10
1.915717
 20
0.842446
 30
0.0
 10
0.050008
 20
-1.023263
 30
0.0
 10
0.050001
 20
-3.324733
 30
0.0
  0
LWPOLYLINE
  5
120
100
AcDbEntity
  8
0
 62
7
100
AcDbPolyline
 90
1
 70
1
 10
4.217187
 20
-0.699745
 30
0.0
  0
SPLINE
  5
121
100
AcDbEntity
  8
0
 62
7
100
AcDbSpline
 70
8
 71
3
 72
8
 73
4
 74
0
 40
0
 40
0
 40
0
 40
0
 40
1
 40
1
 40
1
 40
1
 10
184.001664
 20
-0.699745
 30
0.0
 10
182.551923
 20
-0.699745
 30
0.0
 10
181.376676
 20
-1.874992
 30
0.0
 10
181.376676
 20
-3.324733
 30
0.0
  0
SPLINE
  5
122
100
AcDbEntity
  8
0
 62
7
100
AcDbSpline
 70
8
 71
3
 72
8
 73
4
 74
0
 40
0
 40
0
 40
0
 40
0
 40
1
 40
1
 40
1
 40
1
 10
181.376676
 20
-3.324733
 30
0.0
 10
181.376676
 20
-4.774474
 30
0.0
 10
182.551923
 20
-5.949721
 30
0.0
 10
184.001664
 20
-5.949721
 30
0.0
  0
SPLINE
  5
123
100
AcDbEntity
  8
0
 62
7
100
AcDbSpline
 70
8
 71
3
 72
8
 73
4
 74
0
 40
0
 40
0
 40
0
 40
0
 40
1
 40
1
 40
1
 40
1
 10
184.001664
 20
-5.949721
 30
0.0
 10
185.451405
 20
-5.949721
 30
0.0
 10
186.626652
 20
-4.774474
 30
0.0
 10
186.626652
 20
-3.324733
 30
0.0
  0
SPLINE
  5
124
100
AcDbEntity
  8
0
 62
7
100
AcDbSpline
 70
8
 71
3
 72
8
 73
4
 74
0
 40
0
 40
0
 40
0
 40
0
 40
1
 40
1
 40
1
 40
1
 10
186.626652
 20
-3.324733
 30
0.0
 10
186.626652
 20
-2.628543
 30
0.0
 10
186.350092
 20
-1.960867
 30
0.0
 10
185.857811
 20
-1.468586
 30
0.0
  0
SPLINE
  5
125
100
AcDbEntity
  8
0
 62
7
100
AcDbSpline
 70
8
 71
3
 72
8
 73
4
 74
0
 40
0
 40
0
 40
0
 40
0
 40
1
 40
1
 40
1
 40
1
 10
185.857811
 20
-1.468586
 30
0.0
 10
185.365530
 20
-0.976305
 30
0.0
 10
184.697854
 20
-0.699745
 30
0.0
 10
184.001664
 20
-0.699745
 30
0.0
  0
LWPOLYLINE
  5
126
100
AcDbEntity
  8
0
 62
7
100
AcDbPolyline
 90
2
 70
0
 10
188.168280
 20
-87.857686
 30
0.0
 10
188.168280
 20
-3.323946
 30
0.0
  0
SPLINE
  5
127
100
AcDbEntity
  8
0
 62
7
100
AcDbSpline
 70
8
 71
3
 72
8
 73
4
 74
0
 40
0
 40
0
 40
0
 40
0
 40
1
 40
1
 40
1
 40
1
 10
188.168788
 20
-3.324733
 30
0.0
 10
188.168780
 20
-1.023287
 30
0.0
 10
186.303110
 20
0.842411
 30
0.0
 10
184.001664
 20
0.842453
 30
0.0
  0
SPLINE
  5
128
100
AcDbEntity
  8
0
 62
7
100
AcDbSpline
 70
8
 71
3
 72
8
 73
4
 74
0
 40
0
 40
0
 40
0
 40
0
 40
1
 40
1
 40
1
 40
1
 10
94.109540
 20
-0.699745
 30
0.0
 10
93.047831
 20
-0.699745
 30
0.0
 10
92.090665
 20
-1.339302
 30
0.0
 10
91.684367
 20
-2.320193
 30
0.0
  0
SPLINE
  5
129
100
AcDbEntity
  8
0
 62
7
100
AcDbSpline
 70
8
 71
3
 72
8
 73
4
 74
0
 40
0
 40
0
 40
0
 40
0
 40
1
 40
1
 40
1
 40
1
 10
91.684367
 20
-2.320193
 30
0.0
 10
91.278069
 20
-3.301084
 30
0.0
 10
91.502651
 20
-4.430139
 30
0.0
 10
92.253393
 20
-5.180880
 30
0.0
  0
SPLINE
  5
12a
100
AcDbEntity
  8
0
 62
7
100
AcDbSpline
 70
8
 71
3
 72
8
 73
4
 74
0
 40
0
 40
0
 40
0
 40
0
 40
1
 40
1
 40
1
 40
1
 10
92.253393
 20
-5.180880
 30
0.0
 10
93.004134
 20
-5.931622
 30
0.0
 10
94.133189
 20
-6.156204
 30
0.0
 10
95.114080
 20
-5.749906
 30
0.0
  0
SPLINE
  5
12b
100
AcDbEntity
  8
0
 62
7
100
AcDbSpline
 70
8
 71
3
 72
8
 73
4
 74
0
 40
0
 40
0
 40
0
 40
0
 40
1
 40
1
 40
1
 40
1
 10
95.114080
 20
-5.749906
 30
0.0
 10
96.094971
 20
-5.343608
 30
0.0
 10
96.734528
 20
-4.386442
 30
0.0
 10
96.734528
 20
-3.324733
 30
0.0
  0
SPLINE
  5
12c
100
AcDbEntity
  8
0
 62
7
100
AcDbSpline
 70
8
 71
3
 72
8
 73
4
 74
0
 40
0
 40
0
 40
0
 40
0
 40
1
 40
1
 40
1
 40
1
 10
96.734528
 20
-3.324733
 30
0.0
 10
96.734528
 20
-2.628543
 30
0.0
 10
96.457968
 20
-1.960867
 30
0.0
 10
95.965687
 20
-1.468586
 30
0.0
  0
SPLINE
  5
12d
100
AcDbEntity
  8
0
 62
7
100
AcDbSpline
 70
8
 71
3
 72
8
 73
4
 74
0
 40
0
 40
0
 40
0
 40
0
 40
1
 40
1
 40
1
 40
1
 10
95.965687
 20
-1.468586
 30
0.0
 10
95.473406
 20
-0.976305
 30
0.0
 10
94.805730
 20
-0.699745
 30
0.0
 10
94.109540
 20
-0.699745
 30
0.0
  0
LWPOLYLINE
  5
12e
100
AcDbEntity
  8
0
 62
7
100
AcDbPolyline
 90
1
 70
1
 10
184.001664
 20
-0.699745
 30
0.0
  0
LWPOLYLINE
  5
12f
100
AcDbEntity
  8
0
 62
7
100
AcDbPolyline
 90
1
 70
1
 10
94.109540
 20
-0.699745
 30
0.0
  0
LWPOLYLINE
  5
130
100
AcDbEntity
  8
0
 62
7
100
AcDbPolyline
 90
2
 70
0
 10
180.345080
 20
-65.147546
 30
0.0
 10
170.820080
 20
-65.152626
 30
0.0
  0
LWPOLYLINE
  5
131
100
AcDbEntity
  8
0
 62
7
100
AcDbPolyline
 90
2
 70
0
 10
7.871460
 20
-65.147546
 30
0.0
 10
17.396460
 20
-65.152626
 30
0.0
  0
LWPOLYLINE
  5
132
100
AcDbEntity
  8
0
 62
7
100
AcDbPolyline
 90
2
 70
0
 10
180.345080
 20
-6.979006
 30
0.0
 10
180.345080
 20
-65.147546
 30
0.0
  0
LWPOLYLINE
  5
133
100
AcDbEntity
  8
0
 62
7
100
AcDbPolyline
 90
2
 70
0
 10
7.871460
 20
-6.979006
 30
0.0
 10
180.345080
 20
-6.979006
 30
0.0
  0
LWPOLYLINE
  5
134
100
AcDbEntity
  8
0
 62
7
100
AcDbPolyline
 90
2
 70
0
 10
17.396460
 20
-84.197546
 30
0.0
 10
17.396460
 20
-65.152626
 30
0.0
  0
LWPOLYLINE
  5
135
100
AcDbEntity
  8
0
 62
7
100
AcDbPolyline
 90
3
 70
0
 10
17.396460
 20
-84.197546
 30
0.0
 10
170.820080
 20
-84.202626
 30
0.0
 10
170.820080
 20
-65.152626
 30
0.0
  0
LWPOLYLINE
  5
136
100
AcDbEntity
  8
0
 62
7
100
AcDbPolyline
 90
2
 70
0
 10
7.871460
 20
-6.979006
 30
0.0
 10
7.871460
 20
-65.147546
 30
0.0
  0
ENDSEC
  0
SECTION
  2
OBJECTS
  0
DICTIONARY
  5
C
330
0
100
AcDbDictionary
  3
ACAD_GROUP
350
D
  3
ACAD_MLINESTYLE
350
17
  0
DICTIONARY
  5
D
330
C
100
AcDbDictionary
  0
DICTIONARY
  5
1A
330
C
100
AcDbDictionary
  0
DICTIONARY
  5
17
330
C
100
AcDbDictionary
  3
STANDARD
350
18
  0
DICTIONARY
  5
19
330
C
100
AcDbDictionary
  0
ENDSEC
  0
EOF
