  0
SECTION
  2
HEADER
  9
$ACADVER
  1
AC1014
  9
$HANDSEED
  5
FFFF
  9
$MEASUREMENT
 70
     1
  0
ENDSEC
  0
SECTION
  2
TABLES
  0
TABLE
  2
VPORT
  5
8
330
0
100
AcDbSymbolTable
 70
     4
  0
VPORT
  5
2E
330
8
100
AcDbSymbolTableRecord
100
AcDbViewportTableRecord
  2
*ACTIVE
 70
     0
 10
0.0
 20
0.0
 11
1.0
 21
1.0
 12
210.0
 22
148.5
 13
0.0
 23
0.0
 14
10.0
 24
10.0
 15
10.0
 25
10.0
 16
0.0
 26
0.0
 36
1.0
 17
0.0
 27
0.0
 37
0.0
 40
341.0
 41
1.24
 42
50.0
 43
0.0
 44
0.0
 50
0.0
 51
0.0
 71
     0
 72
   100
 73
     1
 74
     3
 75
     0
 76
     0
 77
     0
 78
     0
  0
ENDTAB
  0
TABLE
  2
LTYPE
  5
5
330
0
100
AcDbSymbolTable
 70
     1
  0
LTYPE
  5
14
330
5
100
AcDbSymbolTableRecord
100
AcDbLinetypeTableRecord
  2
BYBLOCK
 70
     0
  3

 72
    65
 73
     0
 40
0.0
  0
LTYPE
  5
15
330
5
100
AcDbSymbolTableRecord
100
AcDbLinetypeTableRecord
  2
BYLAYER
 70
     0
  3

 72
    65
 73
     0
 40
0.0
  0
LTYPE
  5
16
330
5
100
AcDbSymbolTableRecord
100
AcDbLinetypeTableRecord
  2
CONTINUOUS
 70
     0
  3
Solid line
 72
    65
 73
     0
 40
0.0
  0
ENDTAB
  0
TABLE
  2
LAYER
  5
2
100
AcDbSymbolTable
 70
1
  0
LAYER
  5
50
100
AcDbSymbolTableRecord
100
AcDbLayerTableRecord
  2
0
 70
0
  6
CONTINUOUS
  0
ENDTAB
  0
TABLE
  2
STYLE
  5
3
330
0
100
AcDbSymbolTable
 70
     1
  0
STYLE
  5
11
330
3
100
AcDbSymbolTableRecord
100
AcDbTextStyleTableRecord
  2
STANDARD
 70
     0
 40
0.0
 41
1.0
 50
0.0
 71
     0
 42
2.5
  3
txt
  4

  0
ENDTAB
  0
TABLE
  2
VIEW
  5
6
330
0
100
AcDbSymbolTable
 70
     0
  0
ENDTAB
  0
TABLE
  2
UCS
  5
7
330
0
100
AcDbSymbolTable
 70
     0
  0
ENDTAB
  0
TABLE
  2
APPID
  5
9
330
0
100
AcDbSymbolTable
 70
     2
  0
APPID
  5
12
330
9
100
AcDbSymbolTableRecord
100
AcDbRegAppTableRecord
  2
ACAD
 70
     0
  0
ENDTAB
  0
TABLE
  2
DIMSTYLE
  5
A
330
0
100
AcDbSymbolTable
 70
     1
  0
DIMSTYLE
105
27
330
A
100
AcDbSymbolTableRecord
100
AcDbDimStyleTableRecord
  2
ISO-25
 70
     0
  3

  4

  5

  6

  7

 40
1.0
 41
2.5
 42
0.625
 43
3.75
 44
1.25
 45
0.0
 46
0.0
 47
0.0
 48
0.0
140
2.5
141
2.5
142
0.0
143
0.03937007874016
144
1.0
145
0.0
146
1.0
147
0.625
 71
     0
 72
     0
 73
     0
 74
     0
 75
     0
 76
     0
 77
     1
 78
     8
170
     0
171
     3
172
     1
173
     0
174
     0
175
     0
176
     0
177
     0
178
     0
270
     2
271
     2
272
     2
273
     2
274
     3
340
11
275
     0
280
     0
281
     0
282
     0
283
     0
284
     8
285
     0
286
     0
287
     3
288
     0
  0
ENDTAB
  0
TABLE
  2
BLOCK_RECORD
  5
1
330
0
100
AcDbSymbolTable
 70
     1
  0
BLOCK_RECORD
  5
1F
330
1
100
AcDbSymbolTableRecord
100
AcDbBlockTableRecord
  2
*MODEL_SPACE
  0
BLOCK_RECORD
  5
1B
330
1
100
AcDbSymbolTableRecord
100
AcDbBlockTableRecord
  2
*PAPER_SPACE
  0
ENDTAB
  0
ENDSEC
  0
SECTION
  2
BLOCKS
  0
BLOCK
  5
20
330
1F
100
AcDbEntity
  8
0
100
AcDbBlockBegin
  2
*MODEL_SPACE
 70
     0
 10
0.0
 20
0.0
 30
0.0
  3
*MODEL_SPACE
  1

  0
ENDBLK
  5
21
330
1F
100
AcDbEntity
  8
0
100
AcDbBlockEnd
  0
BLOCK
  5
1C
330
1B
100
AcDbEntity
 67
     1
  8
0
100
AcDbBlockBegin
  2
*PAPER_SPACE
  1

  0
ENDBLK
  5
1D
330
1B
100
AcDbEntity
 67
     1
  8
0
100
AcDbBlockEnd
  0
ENDSEC
  0
SECTION
  2
ENTITIES
  0
LWPOLYLINE
  5
100
100
AcDbEntity
  8
0
 62
7
100
AcDbPolyline
 90
4
 70
1
 10
154.091640
 20
-24.978685
 30
0.0
 10
140.091160
 20
-24.978685
 30
0.0
 10
140.091160
 20
-38.979165
 30
0.0
 10
154.091640
 20
-38.979165
 30
0.0
  0
LWPOLYLINE
  5
101
100
AcDbEntity
  8
0
 62
7
100
AcDbPolyline
 90
4
 70
1
 10
58.841640
 20
-24.978685
 30
0.0
 10
44.841160
 20
-24.978685
 30
0.0
 10
44.841160
 20
-38.979165
 30
0.0
 10
58.841640
 20
-38.979165
 30
0.0
  0
LWPOLYLINE
  5
102
100
AcDbEntity
  8
0
 62
7
100
AcDbPolyline
 90
4
 70
0
 10
32.646620
 20
-63.078685
 30
0.0
 10
18.646140
 20
-63.078685
 30
0.0
 10
18.646140
 20
-77.079165
 30
0.0
 10
32.646620
 20
-77.079165
 30
0.0
  0
LWPOLYLINE
  5
103
100
AcDbEntity
  8
0
 62
7
100
AcDbPolyline
 90
2
 70
0
 10
32.646620
 20
-63.078685
 30
0.0
 10
32.646620
 20
-77.079165
 30
0.0
  0
LWPOLYLINE
  5
104
100
AcDbEntity
  8
0
 62
7
100
AcDbPolyline
 90
4
 70
1
 10
77.891640
 20
-24.978685
 30
0.0
 10
63.891160
 20
-24.978685
 30
0.0
 10
63.891160
 20
-38.979165
 30
0.0
 10
77.891640
 20
-38.979165
 30
0.0
  0
LWPOLYLINE
  5
105
100
AcDbEntity
  8
0
 62
7
100
AcDbPolyline
 90
4
 70
1
 10
115.991640
 20
-24.978685
 30
0.0
 10
101.991160
 20
-24.978685
 30
0.0
 10
101.991160
 20
-38.979165
 30
0.0
 10
115.991640
 20
-38.979165
 30
0.0
  0
LWPOLYLINE
  5
106
100
AcDbEntity
  8
0
 62
7
100
AcDbPolyline
 90
4
 70
1
 10
135.041640
 20
-24.978685
 30
0.0
 10
121.041160
 20
-24.978685
 30
0.0
 10
121.041160
 20
-38.979165
 30
0.0
 10
135.041640
 20
-38.979165
 30
0.0
  0
LWPOLYLINE
  5
107
100
AcDbEntity
  8
0
 62
7
100
AcDbPolyline
 90
4
 70
1
 10
77.891640
 20
-44.028685
 30
0.0
 10
63.891160
 20
-44.028685
 30
0.0
 10
63.891160
 20
-58.029165
 30
0.0
 10
77.891640
 20
-58.029165
 30
0.0
  0
LWPOLYLINE
  5
108
100
AcDbEntity
  8
0
 62
7
100
AcDbPolyline
 90
4
 70
1
 10
135.041640
 20
-44.028685
 30
0.0
 10
121.041160
 20
-44.028685
 30
0.0
 10
121.041160
 20
-58.029165
 30
0.0
 10
135.041640
 20
-58.029165
 30
0.0
  0
LWPOLYLINE
  5
109
100
AcDbEntity
  8
0
 62
7
100
AcDbPolyline
 90
4
 70
1
 10
173.141640
 20
-5.928685
 30
0.0
 10
159.141160
 20
-5.928685
 30
0.0
 10
159.141160
 20
-19.929165
 30
0.0
 10
173.141640
 20
-19.929165
 30
0.0
  0
LWPOLYLINE
  5
10a
100
AcDbEntity
  8
0
 62
7
100
AcDbPolyline
 90
4
 70
1
 10
135.041640
 20
-5.928685
 30
0.0
 10
121.041160
 20
-5.928685
 30
0.0
 10
121.041160
 20
-19.929165
 30
0.0
 10
135.041640
 20
-19.929165
 30
0.0
  0
LWPOLYLINE
  5
10b
100
AcDbEntity
  8
0
 62
7
100
AcDbPolyline
 90
4
 70
1
 10
58.841640
 20
-5.928685
 30
0.0
 10
44.841160
 20
-5.928685
 30
0.0
 10
44.841160
 20
-19.929165
 30
0.0
 10
58.841640
 20
-19.929165
 30
0.0
  0
LWPOLYLINE
  5
10c
100
AcDbEntity
  8
0
 62
7
100
AcDbPolyline
 90
4
 70
1
 10
96.941640
 20
-5.928685
 30
0.0
 10
82.941160
 20
-5.928685
 30
0.0
 10
82.941160
 20
-19.929165
 30
0.0
 10
96.941640
 20
-19.929165
 30
0.0
  0
LWPOLYLINE
  5
10d
100
AcDbEntity
  8
0
 62
7
100
AcDbPolyline
 90
4
 70
1
 10
20.741640
 20
-5.928685
 30
0.0
 10
6.741160
 20
-5.928685
 30
0.0
 10
6.741160
 20
-19.929165
 30
0.0
 10
20.741640
 20
-19.929165
 30
0.0
  0
LWPOLYLINE
  5
10e
100
AcDbEntity
  8
0
 62
7
100
AcDbPolyline
 90
4
 70
1
 10
154.091640
 20
-44.028685
 30
0.0
 10
140.091160
 20
-44.028685
 30
0.0
 10
140.091160
 20
-58.029165
 30
0.0
 10
154.091640
 20
-58.029165
 30
0.0
  0
LWPOLYLINE
  5
10f
100
AcDbEntity
  8
0
 62
7
100
AcDbPolyline
 90
4
 70
1
 10
173.141640
 20
-44.028685
 30
0.0
 10
159.141160
 20
-44.028685
 30
0.0
 10
159.141160
 20
-58.029165
 30
0.0
 10
173.141640
 20
-58.029165
 30
0.0
  0
LWPOLYLINE
  5
110
100
AcDbEntity
  8
0
 62
7
100
AcDbPolyline
 90
4
 70
1
 10
20.741640
 20
-24.978685
 30
0.0
 10
6.741160
 20
-24.978685
 30
0.0
 10
6.741160
 20
-38.979165
 30
0.0
 10
20.741640
 20
-38.979165
 30
0.0
  0
LWPOLYLINE
  5
111
100
AcDbEntity
  8
0
 62
7
100
AcDbPolyline
 90
4
 70
1
 10
58.841640
 20
-44.028685
 30
0.0
 10
44.841160
 20
-44.028685
 30
0.0
 10
44.841160
 20
-58.029165
 30
0.0
 10
58.841640
 20
-58.029165
 30
0.0
  0
LWPOLYLINE
  5
112
100
AcDbEntity
  8
0
 62
7
100
AcDbPolyline
 90
4
 70
1
 10
77.891640
 20
-5.928685
 30
0.0
 10
63.891160
 20
-5.928685
 30
0.0
 10
63.891160
 20
-19.929165
 30
0.0
 10
77.891640
 20
-19.929165
 30
0.0
  0
LWPOLYLINE
  5
113
100
AcDbEntity
  8
0
 62
7
100
AcDbPolyline
 90
4
 70
1
 10
39.791640
 20
-44.028685
 30
0.0
 10
25.791160
 20
-44.028685
 30
0.0
 10
25.791160
 20
-58.029165
 30
0.0
 10
39.791640
 20
-58.029165
 30
0.0
  0
LWPOLYLINE
  5
114
100
AcDbEntity
  8
0
 62
7
100
AcDbPolyline
 90
4
 70
1
 10
20.741640
 20
-44.028685
 30
0.0
 10
6.741160
 20
-44.028685
 30
0.0
 10
6.741160
 20
-58.029165
 30
0.0
 10
20.741640
 20
-58.029165
 30
0.0
  0
LWPOLYLINE
  5
115
100
AcDbEntity
  8
0
 62
7
100
AcDbPolyline
 90
4
 70
1
 10
154.091640
 20
-5.928685
 30
0.0
 10
140.091160
 20
-5.928685
 30
0.0
 10
140.091160
 20
-19.929165
 30
0.0
 10
154.091640
 20
-19.929165
 30
0.0
  0
LWPOLYLINE
  5
116
100
AcDbEntity
  8
0
 62
7
100
AcDbPolyline
 90
4
 70
1
 10
87.416640
 20
-63.078685
 30
0.0
 10
73.416160
 20
-63.078685
 30
0.0
 10
73.416160
 20
-77.079165
 30
0.0
 10
87.416640
 20
-77.079165
 30
0.0
  0
LWPOLYLINE
  5
117
100
AcDbEntity
  8
0
 62
7
100
AcDbPolyline
 90
4
 70
1
 10
132.659120
 20
-63.078685
 30
0.0
 10
132.659120
 20
-77.079165
 30
0.0
 10
118.658640
 20
-77.079165
 30
0.0
 10
118.658640
 20
-63.078685
 30
0.0
  0
LWPOLYLINE
  5
118
100
AcDbEntity
  8
0
 62
7
100
AcDbPolyline
 90
4
 70
1
 10
39.791640
 20
-5.928685
 30
0.0
 10
25.791160
 20
-5.928685
 30
0.0
 10
25.791160
 20
-19.929165
 30
0.0
 10
39.791640
 20
-19.929165
 30
0.0
  0
LWPOLYLINE
  5
119
100
AcDbEntity
  8
0
 62
7
100
AcDbPolyline
 90
4
 70
1
 10
115.991640
 20
-5.928685
 30
0.0
 10
101.991160
 20
-5.928685
 30
0.0
 10
101.991160
 20
-19.929165
 30
0.0
 10
115.991640
 20
-19.929165
 30
0.0
  0
LWPOLYLINE
  5
11a
100
AcDbEntity
  8
0
 62
7
100
AcDbPolyline
 90
4
 70
1
 10
96.941640
 20
-44.028685
 30
0.0
 10
82.941160
 20
-44.028685
 30
0.0
 10
82.941160
 20
-58.029165
 30
0.0
 10
96.941640
 20
-58.029165
 30
0.0
  0
LWPOLYLINE
  5
11b
100
AcDbEntity
  8
0
 62
7
100
AcDbPolyline
 90
4
 70
1
 10
173.141640
 20
-24.978685
 30
0.0
 10
159.141160
 20
-24.978685
 30
0.0
 10
159.141160
 20
-38.979165
 30
0.0
 10
173.141640
 20
-38.979165
 30
0.0
  0
LWPOLYLINE
  5
11c
100
AcDbEntity
  8
0
 62
7
100
AcDbPolyline
 90
4
 70
1
 10
39.791640
 20
-24.978685
 30
0.0
 10
25.791160
 20
-24.978685
 30
0.0
 10
25.791160
 20
-38.979165
 30
0.0
 10
39.791640
 20
-38.979165
 30
0.0
  0
LWPOLYLINE
  5
11d
100
AcDbEntity
  8
0
 62
7
100
AcDbPolyline
 90
4
 70
1
 10
61.221620
 20
-63.078685
 30
0.0
 10
61.221620
 20
-77.079165
 30
0.0
 10
47.221140
 20
-77.079165
 30
0.0
 10
47.221140
 20
-63.078685
 30
0.0
  0
LWPOLYLINE
  5
11e
100
AcDbEntity
  8
0
 62
7
100
AcDbPolyline
 90
4
 70
1
 10
115.991640
 20
-44.028685
 30
0.0
 10
101.991160
 20
-44.028685
 30
0.0
 10
101.991160
 20
-58.029165
 30
0.0
 10
115.991640
 20
-58.029165
 30
0.0
  0
LWPOLYLINE
  5
11f
100
AcDbEntity
  8
0
 62
7
100
AcDbPolyline
 90
4
 70
1
 10
106.466640
 20
-63.078685
 30
0.0
 10
92.466160
 20
-63.078685
 30
0.0
 10
92.466160
 20
-77.079165
 30
0.0
 10
106.466640
 20
-77.079165
 30
0.0
  0
LWPOLYLINE
  5
120
100
AcDbEntity
  8
0
 62
7
100
AcDbPolyline
 90
4
 70
1
 10
96.941640
 20
-24.978685
 30
0.0
 10
82.941160
 20
-24.978685
 30
0.0
 10
82.941160
 20
-38.979165
 30
0.0
 10
96.941640
 20
-38.979165
 30
0.0
  0
LWPOLYLINE
  5
121
100
AcDbEntity
  8
0
 62
7
100
AcDbPolyline
 90
4
 70
0
 10
161.234120
 20
-63.078685
 30
0.0
 10
147.233640
 20
-63.078685
 30
0.0
 10
147.233640
 20
-77.079165
 30
0.0
 10
161.234120
 20
-77.079165
 30
0.0
  0
SPLINE
  5
122
100
AcDbEntity
  8
0
 62
7
100
AcDbSpline
 70
8
 71
3
 72
8
 73
4
 74
0
 40
0
 40
0
 40
0
 40
0
 40
1
 40
1
 40
1
 40
1
 10
179.834540
 20
-79.604687
 30
0.0
 10
178.729312
 20
-79.604707
 30
0.0
 10
177.669361
 20
-80.043784
 30
0.0
 10
176.887871
 20
-80.825322
 30
0.0
  0
SPLINE
  5
123
100
AcDbEntity
  8
0
 62
7
100
AcDbSpline
 70
8
 71
3
 72
8
 73
4
 74
0
 40
0
 40
0
 40
0
 40
0
 40
1
 40
1
 40
1
 40
1
 10
176.887871
 20
-80.825322
 30
0.0
 10
176.106381
 20
-81.606860
 30
0.0
 10
175.667369
 20
-82.666837
 30
0.0
 10
175.667416
 20
-83.772065
 30
0.0
  0
SPLINE
  5
124
100
AcDbEntity
  8
0
 62
7
100
AcDbSpline
 70
8
 71
3
 72
8
 73
4
 74
0
 40
0
 40
0
 40
0
 40
0
 40
1
 40
1
 40
1
 40
1
 10
0.050001
 20
-3.404713
 30
0.0
 10
2.351471
 20
-3.404705
 30
0.0
 10
4.217180
 20
-1.538996
 30
0.0
 10
4.217187
 20
0.762474
 30
0.0
  0
SPLINE
  5
125
100
AcDbEntity
  8
0
 62
7
100
AcDbSpline
 70
8
 71
3
 72
8
 73
4
 74
0
 40
0
 40
0
 40
0
 40
0
 40
1
 40
1
 40
1
 40
1
 10
175.667416
 20
0.762474
 30
0.0
 10
175.667424
 20
-1.538972
 30
0.0
 10
177.533094
 20
-3.404670
 30
0.0
 10
179.834540
 20
-3.404713
 30
0.0
  0
SPLINE
  5
126
100
AcDbEntity
  8
0
 62
7
100
AcDbSpline
 70
8
 71
3
 72
8
 73
4
 74
0
 40
0
 40
0
 40
0
 40
0
 40
1
 40
1
 40
1
 40
1
 10
85.775038
 20
0.762474
 30
0.0
 10
85.775089
 20
-0.726323
 30
0.0
 10
86.569353
 20
-2.102029
 30
0.0
 10
87.858689
 20
-2.846427
 30
0.0
  0
SPLINE
  5
127
100
AcDbEntity
  8
0
 62
7
100
AcDbSpline
 70
8
 71
3
 72
8
 73
4
 74
0
 40
0
 40
0
 40
0
 40
0
 40
1
 40
1
 40
1
 40
1
 10
87.858689
 20
-2.846427
 30
0.0
 10
89.148025
 20
-3.590826
 30
0.0
 10
90.736553
 20
-3.590826
 30
0.0
 10
92.025889
 20
-2.846427
 30
0.0
  0
SPLINE
  5
128
100
AcDbEntity
  8
0
 62
7
100
AcDbSpline
 70
8
 71
3
 72
8
 73
4
 74
0
 40
0
 40
0
 40
0
 40
0
 40
1
 40
1
 40
1
 40
1
 10
92.025889
 20
-2.846427
 30
0.0
 10
93.315225
 20
-2.102029
 30
0.0
 10
94.109489
 20
-0.726323
 30
0.0
 10
94.109489
 20
0.762474
 30
0.0
  0
SPLINE
  5
129
100
AcDbEntity
  8
0
 62
7
100
AcDbSpline
 70
8
 71
3
 72
8
 73
4
 74
0
 40
0
 40
0
 40
0
 40
0
 40
1
 40
1
 40
1
 40
1
 10
94.109540
 20
-83.772065
 30
0.0
 10
94.109489
 20
-82.283268
 30
0.0
 10
93.315225
 20
-80.907563
 30
0.0
 10
92.025889
 20
-80.163164
 30
0.0
  0
SPLINE
  5
12a
100
AcDbEntity
  8
0
 62
7
100
AcDbSpline
 70
8
 71
3
 72
8
 73
4
 74
0
 40
0
 40
0
 40
0
 40
0
 40
1
 40
1
 40
1
 40
1
 10
92.025889
 20
-80.163164
 30
0.0
 10
90.736553
 20
-79.418765
 30
0.0
 10
89.148025
 20
-79.418765
 30
0.0
 10
87.858689
 20
-80.163164
 30
0.0
  0
SPLINE
  5
12b
100
AcDbEntity
  8
0
 62
7
100
AcDbSpline
 70
8
 71
3
 72
8
 73
4
 74
0
 40
0
 40
0
 40
0
 40
0
 40
1
 40
1
 40
1
 40
1
 10
87.858689
 20
-80.163164
 30
0.0
 10
86.569353
 20
-80.907563
 30
0.0
 10
85.775089
 20
-82.283268
 30
0.0
 10
85.775089
 20
-83.772065
 30
0.0
  0
SPLINE
  5
12c
100
AcDbEntity
  8
0
 62
7
100
AcDbSpline
 70
8
 71
3
 72
8
 73
4
 74
0
 40
0
 40
0
 40
0
 40
0
 40
1
 40
1
 40
1
 40
1
 10
4.217187
 20
-83.772065
 30
0.0
 10
4.217235
 20
-82.666826
 30
0.0
 10
3.778214
 20
-81.606839
 30
0.0
 10
2.996710
 20
-80.825300
 30
0.0
  0
SPLINE
  5
12d
100
AcDbEntity
  8
0
 62
7
100
AcDbSpline
 70
8
 71
3
 72
8
 73
4
 74
0
 40
0
 40
0
 40
0
 40
0
 40
1
 40
1
 40
1
 40
1
 10
2.996710
 20
-80.825300
 30
0.0
 10
2.215207
 20
-80.043760
 30
0.0
 10
1.155240
 20
-79.604691
 30
0.0
 10
0.050001
 20
-79.604687
 30
0.0
  0
LWPOLYLINE
  5
12e
100
AcDbEntity
  8
0
 62
7
100
AcDbPolyline
 90
2
 70
0
 10
161.234120
 20
-63.078685
 30
0.0
 10
161.234120
 20
-77.079165
 30
0.0
  0
LWPOLYLINE
  5
12f
100
AcDbEntity
  8
0
 62
7
100
AcDbPolyline
 90
2
 70
0
 10
175.666400
 20
0.764215
 30
0.0
 10
94.107000
 20
0.764215
 30
0.0
  0
LWPOLYLINE
  5
130
100
AcDbEntity
  8
0
 62
7
100
AcDbPolyline
 90
2
 70
0
 10
0.048260
 20
-3.403925
 30
0.0
 10
0.048260
 20
-79.603925
 30
0.0
  0
LWPOLYLINE
  5
131
100
AcDbEntity
  8
0
 62
7
100
AcDbPolyline
 90
2
 70
0
 10
94.107000
 20
-83.769525
 30
0.0
 10
175.666400
 20
-83.769525
 30
0.0
  0
LWPOLYLINE
  5
132
100
AcDbEntity
  8
0
 62
7
100
AcDbPolyline
 90
2
 70
0
 10
4.216400
 20
-83.769525
 30
0.0
 10
85.773260
 20
-83.769525
 30
0.0
  0
LWPOLYLINE
  5
133
100
AcDbEntity
  8
0
 62
7
100
AcDbPolyline
 90
2
 70
0
 10
179.832000
 20
-79.603925
 30
0.0
 10
179.832000
 20
-3.403925
 30
0.0
  0
LWPOLYLINE
  5
134
100
AcDbEntity
  8
0
 62
7
100
AcDbPolyline
 90
2
 70
0
 10
85.773260
 20
0.764215
 30
0.0
 10
4.216400
 20
0.764215
 30
0.0
  0
ENDSEC
  0
SECTION
  2
OBJECTS
  0
DICTIONARY
  5
C
330
0
100
AcDbDictionary
  3
ACAD_GROUP
350
D
  3
ACAD_MLINESTYLE
350
17
  0
DICTIONARY
  5
D
330
C
100
AcDbDictionary
  0
DICTIONARY
  5
1A
330
C
100
AcDbDictionary
  0
DICTIONARY
  5
17
330
C
100
AcDbDictionary
  3
STANDARD
350
18
  0
DICTIONARY
  5
19
330
C
100
AcDbDictionary
  0
ENDSEC
  0
EOF
