  0
SECTION
  2
HEADER
  9
$ACADVER
  1
AC1014
  9
$HANDSEED
  5
FFFF
  9
$MEASUREMENT
 70
     1
  0
ENDSEC
  0
SECTION
  2
TABLES
  0
TABLE
  2
VPORT
  5
8
330
0
100
AcDbSymbolTable
 70
     4
  0
VPORT
  5
2E
330
8
100
AcDbSymbolTableRecord
100
AcDbViewportTableRecord
  2
*ACTIVE
 70
     0
 10
0.0
 20
0.0
 11
1.0
 21
1.0
 12
210.0
 22
148.5
 13
0.0
 23
0.0
 14
10.0
 24
10.0
 15
10.0
 25
10.0
 16
0.0
 26
0.0
 36
1.0
 17
0.0
 27
0.0
 37
0.0
 40
341.0
 41
1.24
 42
50.0
 43
0.0
 44
0.0
 50
0.0
 51
0.0
 71
     0
 72
   100
 73
     1
 74
     3
 75
     0
 76
     0
 77
     0
 78
     0
  0
ENDTAB
  0
TABLE
  2
LTYPE
  5
5
330
0
100
AcDbSymbolTable
 70
     1
  0
LTYPE
  5
14
330
5
100
AcDbSymbolTableRecord
100
AcDbLinetypeTableRecord
  2
BYBLOCK
 70
     0
  3

 72
    65
 73
     0
 40
0.0
  0
LTYPE
  5
15
330
5
100
AcDbSymbolTableRecord
100
AcDbLinetypeTableRecord
  2
BYLAYER
 70
     0
  3

 72
    65
 73
     0
 40
0.0
  0
LTYPE
  5
16
330
5
100
AcDbSymbolTableRecord
100
AcDbLinetypeTableRecord
  2
CONTINUOUS
 70
     0
  3
Solid line
 72
    65
 73
     0
 40
0.0
  0
ENDTAB
  0
TABLE
  2
LAYER
  5
2
100
AcDbSymbolTable
 70
1
  0
LAYER
  5
50
100
AcDbSymbolTableRecord
100
AcDbLayerTableRecord
  2
0
 70
0
  6
CONTINUOUS
  0
ENDTAB
  0
TABLE
  2
STYLE
  5
3
330
0
100
AcDbSymbolTable
 70
     1
  0
STYLE
  5
11
330
3
100
AcDbSymbolTableRecord
100
AcDbTextStyleTableRecord
  2
STANDARD
 70
     0
 40
0.0
 41
1.0
 50
0.0
 71
     0
 42
2.5
  3
txt
  4

  0
ENDTAB
  0
TABLE
  2
VIEW
  5
6
330
0
100
AcDbSymbolTable
 70
     0
  0
ENDTAB
  0
TABLE
  2
UCS
  5
7
330
0
100
AcDbSymbolTable
 70
     0
  0
ENDTAB
  0
TABLE
  2
APPID
  5
9
330
0
100
AcDbSymbolTable
 70
     2
  0
APPID
  5
12
330
9
100
AcDbSymbolTableRecord
100
AcDbRegAppTableRecord
  2
ACAD
 70
     0
  0
ENDTAB
  0
TABLE
  2
DIMSTYLE
  5
A
330
0
100
AcDbSymbolTable
 70
     1
  0
DIMSTYLE
105
27
330
A
100
AcDbSymbolTableRecord
100
AcDbDimStyleTableRecord
  2
ISO-25
 70
     0
  3

  4

  5

  6

  7

 40
1.0
 41
2.5
 42
0.625
 43
3.75
 44
1.25
 45
0.0
 46
0.0
 47
0.0
 48
0.0
140
2.5
141
2.5
142
0.0
143
0.03937007874016
144
1.0
145
0.0
146
1.0
147
0.625
 71
     0
 72
     0
 73
     0
 74
     0
 75
     0
 76
     0
 77
     1
 78
     8
170
     0
171
     3
172
     1
173
     0
174
     0
175
     0
176
     0
177
     0
178
     0
270
     2
271
     2
272
     2
273
     2
274
     3
340
11
275
     0
280
     0
281
     0
282
     0
283
     0
284
     8
285
     0
286
     0
287
     3
288
     0
  0
ENDTAB
  0
TABLE
  2
BLOCK_RECORD
  5
1
330
0
100
AcDbSymbolTable
 70
     1
  0
BLOCK_RECORD
  5
1F
330
1
100
AcDbSymbolTableRecord
100
AcDbBlockTableRecord
  2
*MODEL_SPACE
  0
BLOCK_RECORD
  5
1B
330
1
100
AcDbSymbolTableRecord
100
AcDbBlockTableRecord
  2
*PAPER_SPACE
  0
ENDTAB
  0
ENDSEC
  0
SECTION
  2
BLOCKS
  0
BLOCK
  5
20
330
1F
100
AcDbEntity
  8
0
100
AcDbBlockBegin
  2
*MODEL_SPACE
 70
     0
 10
0.0
 20
0.0
 30
0.0
  3
*MODEL_SPACE
  1

  0
ENDBLK
  5
21
330
1F
100
AcDbEntity
  8
0
100
AcDbBlockEnd
  0
BLOCK
  5
1C
330
1B
100
AcDbEntity
 67
     1
  8
0
100
AcDbBlockBegin
  2
*PAPER_SPACE
  1

  0
ENDBLK
  5
1D
330
1B
100
AcDbEntity
 67
     1
  8
0
100
AcDbBlockEnd
  0
ENDSEC
  0
SECTION
  2
ENTITIES
  0
SPLINE
  5
100
100
AcDbEntity
  8
0
 62
7
100
AcDbSpline
 70
8
 71
3
 72
8
 73
4
 74
0
 40
0
 40
0
 40
0
 40
0
 40
1
 40
1
 40
1
 40
1
 10
135.186166
 20
-23.255958
 30
0.0
 10
134.579473
 20
-23.255958
 30
0.0
 10
134.032519
 20
-23.621421
 30
0.0
 10
133.800347
 20
-24.181933
 30
0.0
  0
SPLINE
  5
101
100
AcDbEntity
  8
0
 62
7
100
AcDbSpline
 70
8
 71
3
 72
8
 73
4
 74
0
 40
0
 40
0
 40
0
 40
0
 40
1
 40
1
 40
1
 40
1
 10
133.800347
 20
-24.181933
 30
0.0
 10
133.568176
 20
-24.742444
 30
0.0
 10
133.696509
 20
-25.387621
 30
0.0
 10
134.125506
 20
-25.816617
 30
0.0
  0
SPLINE
  5
102
100
AcDbEntity
  8
0
 62
7
100
AcDbSpline
 70
8
 71
3
 72
8
 73
4
 74
0
 40
0
 40
0
 40
0
 40
0
 40
1
 40
1
 40
1
 40
1
 10
134.125506
 20
-25.816617
 30
0.0
 10
134.554503
 20
-26.245614
 30
0.0
 10
135.199680
 20
-26.373948
 30
0.0
 10
135.760191
 20
-26.141776
 30
0.0
  0
SPLINE
  5
103
100
AcDbEntity
  8
0
 62
7
100
AcDbSpline
 70
8
 71
3
 72
8
 73
4
 74
0
 40
0
 40
0
 40
0
 40
0
 40
1
 40
1
 40
1
 40
1
 10
135.760191
 20
-26.141776
 30
0.0
 10
136.320702
 20
-25.909605
 30
0.0
 10
136.686166
 20
-25.362651
 30
0.0
 10
136.686166
 20
-24.755958
 30
0.0
  0
SPLINE
  5
104
100
AcDbEntity
  8
0
 62
7
100
AcDbSpline
 70
8
 71
3
 72
8
 73
4
 74
0
 40
0
 40
0
 40
0
 40
0
 40
1
 40
1
 40
1
 40
1
 10
136.686166
 20
-24.755958
 30
0.0
 10
136.686166
 20
-24.358133
 30
0.0
 10
136.528130
 20
-23.976602
 30
0.0
 10
136.246826
 20
-23.695298
 30
0.0
  0
SPLINE
  5
105
100
AcDbEntity
  8
0
 62
7
100
AcDbSpline
 70
8
 71
3
 72
8
 73
4
 74
0
 40
0
 40
0
 40
0
 40
0
 40
1
 40
1
 40
1
 40
1
 10
136.246826
 20
-23.695298
 30
0.0
 10
135.965521
 20
-23.413993
 30
0.0
 10
135.583991
 20
-23.255958
 30
0.0
 10
135.186166
 20
-23.255958
 30
0.0
  0
SPLINE
  5
106
100
AcDbEntity
  8
0
 62
7
100
AcDbSpline
 70
8
 71
3
 72
8
 73
4
 74
0
 40
0
 40
0
 40
0
 40
0
 40
1
 40
1
 40
1
 40
1
 10
21.481263
 20
-10.659107
 30
0.0
 10
21.076800
 20
-10.659107
 30
0.0
 10
20.712164
 20
-10.902750
 30
0.0
 10
20.557383
 20
-11.276424
 30
0.0
  0
SPLINE
  5
107
100
AcDbEntity
  8
0
 62
7
100
AcDbSpline
 70
8
 71
3
 72
8
 73
4
 74
0
 40
0
 40
0
 40
0
 40
0
 40
1
 40
1
 40
1
 40
1
 10
20.557383
 20
-11.276424
 30
0.0
 10
20.402601
 20
-11.650099
 30
0.0
 10
20.488157
 20
-12.080217
 30
0.0
 10
20.774155
 20
-12.366215
 30
0.0
  0
SPLINE
  5
108
100
AcDbEntity
  8
0
 62
7
100
AcDbSpline
 70
8
 71
3
 72
8
 73
4
 74
0
 40
0
 40
0
 40
0
 40
0
 40
1
 40
1
 40
1
 40
1
 10
20.774155
 20
-12.366215
 30
0.0
 10
21.060154
 20
-12.652213
 30
0.0
 10
21.490272
 20
-12.737769
 30
0.0
 10
21.863946
 20
-12.582988
 30
0.0
  0
SPLINE
  5
109
100
AcDbEntity
  8
0
 62
7
100
AcDbSpline
 70
8
 71
3
 72
8
 73
4
 74
0
 40
0
 40
0
 40
0
 40
0
 40
1
 40
1
 40
1
 40
1
 10
21.863946
 20
-12.582988
 30
0.0
 10
22.237621
 20
-12.428207
 30
0.0
 10
22.481263
 20
-12.063570
 30
0.0
 10
22.481263
 20
-11.659108
 30
0.0
  0
SPLINE
  5
10a
100
AcDbEntity
  8
0
 62
7
100
AcDbSpline
 70
8
 71
3
 72
8
 73
4
 74
0
 40
0
 40
0
 40
0
 40
0
 40
1
 40
1
 40
1
 40
1
 10
22.481263
 20
-11.659108
 30
0.0
 10
22.481263
 20
-11.393891
 30
0.0
 10
22.375906
 20
-11.139537
 30
0.0
 10
22.188370
 20
-10.952001
 30
0.0
  0
SPLINE
  5
10b
100
AcDbEntity
  8
0
 62
7
100
AcDbSpline
 70
8
 71
3
 72
8
 73
4
 74
0
 40
0
 40
0
 40
0
 40
0
 40
1
 40
1
 40
1
 40
1
 10
22.188370
 20
-10.952001
 30
0.0
 10
22.000833
 20
-10.764464
 30
0.0
 10
21.746479
 20
-10.659107
 30
0.0
 10
21.481263
 20
-10.659107
 30
0.0
  0
LWPOLYLINE
  5
10c
100
AcDbEntity
  8
0
 62
7
100
AcDbPolyline
 90
1
 70
1
 10
135.186166
 20
-23.255958
 30
0.0
  0
SPLINE
  5
10d
100
AcDbEntity
  8
0
 62
7
100
AcDbSpline
 70
8
 71
3
 72
8
 73
4
 74
0
 40
0
 40
0
 40
0
 40
0
 40
1
 40
1
 40
1
 40
1
 10
52.437538
 20
-10.659107
 30
0.0
 10
52.033076
 20
-10.659107
 30
0.0
 10
51.668439
 20
-10.902750
 30
0.0
 10
51.513658
 20
-11.276424
 30
0.0
  0
SPLINE
  5
10e
100
AcDbEntity
  8
0
 62
7
100
AcDbSpline
 70
8
 71
3
 72
8
 73
4
 74
0
 40
0
 40
0
 40
0
 40
0
 40
1
 40
1
 40
1
 40
1
 10
51.513658
 20
-11.276424
 30
0.0
 10
51.358877
 20
-11.650099
 30
0.0
 10
51.444433
 20
-12.080217
 30
0.0
 10
51.730431
 20
-12.366215
 30
0.0
  0
SPLINE
  5
10f
100
AcDbEntity
  8
0
 62
7
100
AcDbSpline
 70
8
 71
3
 72
8
 73
4
 74
0
 40
0
 40
0
 40
0
 40
0
 40
1
 40
1
 40
1
 40
1
 10
51.730431
 20
-12.366215
 30
0.0
 10
52.016429
 20
-12.652213
 30
0.0
 10
52.446547
 20
-12.737769
 30
0.0
 10
52.820222
 20
-12.582988
 30
0.0
  0
SPLINE
  5
110
100
AcDbEntity
  8
0
 62
7
100
AcDbSpline
 70
8
 71
3
 72
8
 73
4
 74
0
 40
0
 40
0
 40
0
 40
0
 40
1
 40
1
 40
1
 40
1
 10
52.820222
 20
-12.582988
 30
0.0
 10
53.193896
 20
-12.428207
 30
0.0
 10
53.437539
 20
-12.063570
 30
0.0
 10
53.437539
 20
-11.659108
 30
0.0
  0
SPLINE
  5
111
100
AcDbEntity
  8
0
 62
7
100
AcDbSpline
 70
8
 71
3
 72
8
 73
4
 74
0
 40
0
 40
0
 40
0
 40
0
 40
1
 40
1
 40
1
 40
1
 10
53.437539
 20
-11.659108
 30
0.0
 10
53.437539
 20
-11.393891
 30
0.0
 10
53.332182
 20
-11.139537
 30
0.0
 10
53.144645
 20
-10.952001
 30
0.0
  0
SPLINE
  5
112
100
AcDbEntity
  8
0
 62
7
100
AcDbSpline
 70
8
 71
3
 72
8
 73
4
 74
0
 40
0
 40
0
 40
0
 40
0
 40
1
 40
1
 40
1
 40
1
 10
53.144645
 20
-10.952001
 30
0.0
 10
52.957109
 20
-10.764464
 30
0.0
 10
52.702755
 20
-10.659107
 30
0.0
 10
52.437538
 20
-10.659107
 30
0.0
  0
LWPOLYLINE
  5
113
100
AcDbEntity
  8
0
 62
7
100
AcDbPolyline
 90
1
 70
1
 10
21.481263
 20
-10.659107
 30
0.0
  0
SPLINE
  5
114
100
AcDbEntity
  8
0
 62
7
100
AcDbSpline
 70
8
 71
3
 72
8
 73
4
 74
0
 40
0
 40
0
 40
0
 40
0
 40
1
 40
1
 40
1
 40
1
 10
135.781288
 20
-10.659107
 30
0.0
 10
135.376826
 20
-10.659107
 30
0.0
 10
135.012189
 20
-10.902750
 30
0.0
 10
134.857408
 20
-11.276424
 30
0.0
  0
SPLINE
  5
115
100
AcDbEntity
  8
0
 62
7
100
AcDbSpline
 70
8
 71
3
 72
8
 73
4
 74
0
 40
0
 40
0
 40
0
 40
0
 40
1
 40
1
 40
1
 40
1
 10
134.857408
 20
-11.276424
 30
0.0
 10
134.702627
 20
-11.650099
 30
0.0
 10
134.788183
 20
-12.080217
 30
0.0
 10
135.074181
 20
-12.366215
 30
0.0
  0
SPLINE
  5
116
100
AcDbEntity
  8
0
 62
7
100
AcDbSpline
 70
8
 71
3
 72
8
 73
4
 74
0
 40
0
 40
0
 40
0
 40
0
 40
1
 40
1
 40
1
 40
1
 10
135.074181
 20
-12.366215
 30
0.0
 10
135.360179
 20
-12.652213
 30
0.0
 10
135.790297
 20
-12.737769
 30
0.0
 10
136.163972
 20
-12.582988
 30
0.0
  0
SPLINE
  5
117
100
AcDbEntity
  8
0
 62
7
100
AcDbSpline
 70
8
 71
3
 72
8
 73
4
 74
0
 40
0
 40
0
 40
0
 40
0
 40
1
 40
1
 40
1
 40
1
 10
136.163972
 20
-12.582988
 30
0.0
 10
136.537646
 20
-12.428207
 30
0.0
 10
136.781289
 20
-12.063570
 30
0.0
 10
136.781289
 20
-11.659108
 30
0.0
  0
SPLINE
  5
118
100
AcDbEntity
  8
0
 62
7
100
AcDbSpline
 70
8
 71
3
 72
8
 73
4
 74
0
 40
0
 40
0
 40
0
 40
0
 40
1
 40
1
 40
1
 40
1
 10
136.781289
 20
-11.659108
 30
0.0
 10
136.781289
 20
-11.393891
 30
0.0
 10
136.675932
 20
-11.139537
 30
0.0
 10
136.488395
 20
-10.952001
 30
0.0
  0
SPLINE
  5
119
100
AcDbEntity
  8
0
 62
7
100
AcDbSpline
 70
8
 71
3
 72
8
 73
4
 74
0
 40
0
 40
0
 40
0
 40
0
 40
1
 40
1
 40
1
 40
1
 10
136.488395
 20
-10.952001
 30
0.0
 10
136.300859
 20
-10.764464
 30
0.0
 10
136.046505
 20
-10.659107
 30
0.0
 10
135.781288
 20
-10.659107
 30
0.0
  0
LWPOLYLINE
  5
11a
100
AcDbEntity
  8
0
 62
7
100
AcDbPolyline
 90
1
 70
1
 10
52.437538
 20
-10.659107
 30
0.0
  0
SPLINE
  5
11b
100
AcDbEntity
  8
0
 62
7
100
AcDbSpline
 70
8
 71
3
 72
8
 73
4
 74
0
 40
0
 40
0
 40
0
 40
0
 40
1
 40
1
 40
1
 40
1
 10
166.737538
 20
-10.659107
 30
0.0
 10
166.333076
 20
-10.659107
 30
0.0
 10
165.968439
 20
-10.902750
 30
0.0
 10
165.813658
 20
-11.276424
 30
0.0
  0
SPLINE
  5
11c
100
AcDbEntity
  8
0
 62
7
100
AcDbSpline
 70
8
 71
3
 72
8
 73
4
 74
0
 40
0
 40
0
 40
0
 40
0
 40
1
 40
1
 40
1
 40
1
 10
165.813658
 20
-11.276424
 30
0.0
 10
165.658877
 20
-11.650099
 30
0.0
 10
165.744433
 20
-12.080217
 30
0.0
 10
166.030431
 20
-12.366215
 30
0.0
  0
SPLINE
  5
11d
100
AcDbEntity
  8
0
 62
7
100
AcDbSpline
 70
8
 71
3
 72
8
 73
4
 74
0
 40
0
 40
0
 40
0
 40
0
 40
1
 40
1
 40
1
 40
1
 10
166.030431
 20
-12.366215
 30
0.0
 10
166.316429
 20
-12.652213
 30
0.0
 10
166.746547
 20
-12.737769
 30
0.0
 10
167.120222
 20
-12.582988
 30
0.0
  0
SPLINE
  5
11e
100
AcDbEntity
  8
0
 62
7
100
AcDbSpline
 70
8
 71
3
 72
8
 73
4
 74
0
 40
0
 40
0
 40
0
 40
0
 40
1
 40
1
 40
1
 40
1
 10
167.120222
 20
-12.582988
 30
0.0
 10
167.493896
 20
-12.428207
 30
0.0
 10
167.737539
 20
-12.063570
 30
0.0
 10
167.737539
 20
-11.659108
 30
0.0
  0
SPLINE
  5
11f
100
AcDbEntity
  8
0
 62
7
100
AcDbSpline
 70
8
 71
3
 72
8
 73
4
 74
0
 40
0
 40
0
 40
0
 40
0
 40
1
 40
1
 40
1
 40
1
 10
167.737539
 20
-11.659108
 30
0.0
 10
167.737539
 20
-11.393891
 30
0.0
 10
167.632182
 20
-11.139537
 30
0.0
 10
167.444645
 20
-10.952001
 30
0.0
  0
SPLINE
  5
120
100
AcDbEntity
  8
0
 62
7
100
AcDbSpline
 70
8
 71
3
 72
8
 73
4
 74
0
 40
0
 40
0
 40
0
 40
0
 40
1
 40
1
 40
1
 40
1
 10
167.444645
 20
-10.952001
 30
0.0
 10
167.257109
 20
-10.764464
 30
0.0
 10
167.002755
 20
-10.659107
 30
0.0
 10
166.737538
 20
-10.659107
 30
0.0
  0
LWPOLYLINE
  5
121
100
AcDbEntity
  8
0
 62
7
100
AcDbPolyline
 90
1
 70
1
 10
135.781288
 20
-10.659107
 30
0.0
  0
SPLINE
  5
122
100
AcDbEntity
  8
0
 62
7
100
AcDbSpline
 70
8
 71
3
 72
8
 73
4
 74
0
 40
0
 40
0
 40
0
 40
0
 40
1
 40
1
 40
1
 40
1
 10
184.001664
 20
-86.359210
 30
0.0
 10
183.394971
 20
-86.359210
 30
0.0
 10
182.848017
 20
-86.724673
 30
0.0
 10
182.615845
 20
-87.285185
 30
0.0
  0
SPLINE
  5
123
100
AcDbEntity
  8
0
 62
7
100
AcDbSpline
 70
8
 71
3
 72
8
 73
4
 74
0
 40
0
 40
0
 40
0
 40
0
 40
1
 40
1
 40
1
 40
1
 10
182.615845
 20
-87.285185
 30
0.0
 10
182.383674
 20
-87.845696
 30
0.0
 10
182.512007
 20
-88.490873
 30
0.0
 10
182.941004
 20
-88.919869
 30
0.0
  0
SPLINE
  5
124
100
AcDbEntity
  8
0
 62
7
100
AcDbSpline
 70
8
 71
3
 72
8
 73
4
 74
0
 40
0
 40
0
 40
0
 40
0
 40
1
 40
1
 40
1
 40
1
 10
182.941004
 20
-88.919869
 30
0.0
 10
183.370001
 20
-89.348866
 30
0.0
 10
184.015178
 20
-89.477200
 30
0.0
 10
184.575689
 20
-89.245028
 30
0.0
  0
SPLINE
  5
125
100
AcDbEntity
  8
0
 62
7
100
AcDbSpline
 70
8
 71
3
 72
8
 73
4
 74
0
 40
0
 40
0
 40
0
 40
0
 40
1
 40
1
 40
1
 40
1
 10
184.575689
 20
-89.245028
 30
0.0
 10
185.136200
 20
-89.012857
 30
0.0
 10
185.501664
 20
-88.465903
 30
0.0
 10
185.501664
 20
-87.859210
 30
0.0
  0
SPLINE
  5
126
100
AcDbEntity
  8
0
 62
7
100
AcDbSpline
 70
8
 71
3
 72
8
 73
4
 74
0
 40
0
 40
0
 40
0
 40
0
 40
1
 40
1
 40
1
 40
1
 10
185.501664
 20
-87.859210
 30
0.0
 10
185.501664
 20
-87.461385
 30
0.0
 10
185.343628
 20
-87.079854
 30
0.0
 10
185.062324
 20
-86.798550
 30
0.0
  0
SPLINE
  5
127
100
AcDbEntity
  8
0
 62
7
100
AcDbSpline
 70
8
 71
3
 72
8
 73
4
 74
0
 40
0
 40
0
 40
0
 40
0
 40
1
 40
1
 40
1
 40
1
 10
185.062324
 20
-86.798550
 30
0.0
 10
184.781019
 20
-86.517245
 30
0.0
 10
184.399489
 20
-86.359210
 30
0.0
 10
184.001664
 20
-86.359210
 30
0.0
  0
LWPOLYLINE
  5
128
100
AcDbEntity
  8
0
 62
7
100
AcDbPolyline
 90
1
 70
1
 10
166.737538
 20
-10.659107
 30
0.0
  0
LWPOLYLINE
  5
129
100
AcDbEntity
  8
0
 62
7
100
AcDbPolyline
 90
1
 70
1
 10
184.001664
 20
-86.359210
 30
0.0
  0
SPLINE
  5
12a
100
AcDbEntity
  8
0
 62
7
100
AcDbSpline
 70
8
 71
3
 72
8
 73
4
 74
0
 40
0
 40
0
 40
0
 40
0
 40
1
 40
1
 40
1
 40
1
 10
188.168788
 20
-3.324733
 30
0.0
 10
188.168780
 20
-1.023287
 30
0.0
 10
186.303110
 20
0.842411
 30
0.0
 10
184.001664
 20
0.842453
 30
0.0
  0
SPLINE
  5
12b
100
AcDbEntity
  8
0
 62
7
100
AcDbSpline
 70
8
 71
3
 72
8
 73
4
 74
0
 40
0
 40
0
 40
0
 40
0
 40
1
 40
1
 40
1
 40
1
 10
4.217187
 20
-1.824733
 30
0.0
 10
3.610494
 20
-1.824733
 30
0.0
 10
3.063540
 20
-2.190197
 30
0.0
 10
2.831369
 20
-2.750708
 30
0.0
  0
SPLINE
  5
12c
100
AcDbEntity
  8
0
 62
7
100
AcDbSpline
 70
8
 71
3
 72
8
 73
4
 74
0
 40
0
 40
0
 40
0
 40
0
 40
1
 40
1
 40
1
 40
1
 10
2.831369
 20
-2.750708
 30
0.0
 10
2.599197
 20
-3.311219
 30
0.0
 10
2.727531
 20
-3.956396
 30
0.0
 10
3.156528
 20
-4.385393
 30
0.0
  0
SPLINE
  5
12d
100
AcDbEntity
  8
0
 62
7
100
AcDbSpline
 70
8
 71
3
 72
8
 73
4
 74
0
 40
0
 40
0
 40
0
 40
0
 40
1
 40
1
 40
1
 40
1
 10
3.156528
 20
-4.385393
 30
0.0
 10
3.585524
 20
-4.814390
 30
0.0
 10
4.230701
 20
-4.942723
 30
0.0
 10
4.791212
 20
-4.710552
 30
0.0
  0
SPLINE
  5
12e
100
AcDbEntity
  8
0
 62
7
100
AcDbSpline
 70
8
 71
3
 72
8
 73
4
 74
0
 40
0
 40
0
 40
0
 40
0
 40
1
 40
1
 40
1
 40
1
 10
4.791212
 20
-4.710552
 30
0.0
 10
5.351724
 20
-4.478380
 30
0.0
 10
5.717187
 20
-3.931426
 30
0.0
 10
5.717187
 20
-3.324733
 30
0.0
  0
SPLINE
  5
12f
100
AcDbEntity
  8
0
 62
7
100
AcDbSpline
 70
8
 71
3
 72
8
 73
4
 74
0
 40
0
 40
0
 40
0
 40
0
 40
1
 40
1
 40
1
 40
1
 10
5.717187
 20
-3.324733
 30
0.0
 10
5.717187
 20
-2.926908
 30
0.0
 10
5.559152
 20
-2.545378
 30
0.0
 10
5.277847
 20
-2.264073
 30
0.0
  0
SPLINE
  5
130
100
AcDbEntity
  8
0
 62
7
100
AcDbSpline
 70
8
 71
3
 72
8
 73
4
 74
0
 40
0
 40
0
 40
0
 40
0
 40
1
 40
1
 40
1
 40
1
 10
5.277847
 20
-2.264073
 30
0.0
 10
4.996543
 20
-1.982769
 30
0.0
 10
4.615012
 20
-1.824733
 30
0.0
 10
4.217187
 20
-1.824733
 30
0.0
  0
LWPOLYLINE
  5
131
100
AcDbEntity
  8
0
 62
7
100
AcDbPolyline
 90
2
 70
0
 10
139.946380
 20
-45.589546
 30
0.0
 10
139.946380
 20
0.844194
 30
0.0
  0
LWPOLYLINE
  5
132
100
AcDbEntity
  8
0
 62
7
100
AcDbPolyline
 90
1
 70
1
 10
4.217187
 20
-1.824733
 30
0.0
  0
LWPOLYLINE
  5
133
100
AcDbEntity
  8
0
 62
7
100
AcDbPolyline
 90
2
 70
0
 10
188.168280
 20
-87.857686
 30
0.0
 10
188.168280
 20
-3.323946
 30
0.0
  0
SPLINE
  5
134
100
AcDbEntity
  8
0
 62
7
100
AcDbSpline
 70
8
 71
3
 72
8
 73
4
 74
0
 40
0
 40
0
 40
0
 40
0
 40
1
 40
1
 40
1
 40
1
 10
0.050001
 20
-87.859210
 30
0.0
 10
0.050043
 20
-90.160656
 30
0.0
 10
1.915741
 20
-92.026326
 30
0.0
 10
4.217187
 20
-92.026334
 30
0.0
  0
LWPOLYLINE
  5
135
100
AcDbEntity
  8
0
 62
7
100
AcDbPolyline
 90
3
 70
0
 10
139.946380
 20
-45.589546
 30
0.0
 10
162.570160
 20
-45.589546
 30
0.0
 10
162.570160
 20
0.844194
 30
0.0
  0
SPLINE
  5
136
100
AcDbEntity
  8
0
 62
7
100
AcDbSpline
 70
8
 71
3
 72
8
 73
4
 74
0
 40
0
 40
0
 40
0
 40
0
 40
1
 40
1
 40
1
 40
1
 10
4.217187
 20
-86.359210
 30
0.0
 10
3.610494
 20
-86.359210
 30
0.0
 10
3.063540
 20
-86.724673
 30
0.0
 10
2.831369
 20
-87.285185
 30
0.0
  0
SPLINE
  5
137
100
AcDbEntity
  8
0
 62
7
100
AcDbSpline
 70
8
 71
3
 72
8
 73
4
 74
0
 40
0
 40
0
 40
0
 40
0
 40
1
 40
1
 40
1
 40
1
 10
2.831369
 20
-87.285185
 30
0.0
 10
2.599197
 20
-87.845696
 30
0.0
 10
2.727531
 20
-88.490873
 30
0.0
 10
3.156528
 20
-88.919869
 30
0.0
  0
SPLINE
  5
138
100
AcDbEntity
  8
0
 62
7
100
AcDbSpline
 70
8
 71
3
 72
8
 73
4
 74
0
 40
0
 40
0
 40
0
 40
0
 40
1
 40
1
 40
1
 40
1
 10
3.156528
 20
-88.919869
 30
0.0
 10
3.585524
 20
-89.348866
 30
0.0
 10
4.230701
 20
-89.477200
 30
0.0
 10
4.791212
 20
-89.245028
 30
0.0
  0
SPLINE
  5
139
100
AcDbEntity
  8
0
 62
7
100
AcDbSpline
 70
8
 71
3
 72
8
 73
4
 74
0
 40
0
 40
0
 40
0
 40
0
 40
1
 40
1
 40
1
 40
1
 10
4.791212
 20
-89.245028
 30
0.0
 10
5.351724
 20
-89.012857
 30
0.0
 10
5.717187
 20
-88.465903
 30
0.0
 10
5.717187
 20
-87.859210
 30
0.0
  0
SPLINE
  5
13a
100
AcDbEntity
  8
0
 62
7
100
AcDbSpline
 70
8
 71
3
 72
8
 73
4
 74
0
 40
0
 40
0
 40
0
 40
0
 40
1
 40
1
 40
1
 40
1
 10
5.717187
 20
-87.859210
 30
0.0
 10
5.717187
 20
-87.461385
 30
0.0
 10
5.559152
 20
-87.079854
 30
0.0
 10
5.277847
 20
-86.798550
 30
0.0
  0
SPLINE
  5
13b
100
AcDbEntity
  8
0
 62
7
100
AcDbSpline
 70
8
 71
3
 72
8
 73
4
 74
0
 40
0
 40
0
 40
0
 40
0
 40
1
 40
1
 40
1
 40
1
 10
5.277847
 20
-86.798550
 30
0.0
 10
4.996543
 20
-86.517245
 30
0.0
 10
4.615012
 20
-86.359210
 30
0.0
 10
4.217187
 20
-86.359210
 30
0.0
  0
LWPOLYLINE
  5
13c
100
AcDbEntity
  8
0
 62
7
100
AcDbPolyline
 90
2
 70
0
 10
0.048260
 20
-3.323946
 30
0.0
 10
0.048260
 20
-87.857686
 30
0.0
  0
SPLINE
  5
13d
100
AcDbEntity
  8
0
 62
7
100
AcDbSpline
 70
8
 71
3
 72
8
 73
4
 74
0
 40
0
 40
0
 40
0
 40
0
 40
1
 40
1
 40
1
 40
1
 10
94.109540
 20
-86.359210
 30
0.0
 10
93.502847
 20
-86.359210
 30
0.0
 10
92.955893
 20
-86.724673
 30
0.0
 10
92.723721
 20
-87.285185
 30
0.0
  0
SPLINE
  5
13e
100
AcDbEntity
  8
0
 62
7
100
AcDbSpline
 70
8
 71
3
 72
8
 73
4
 74
0
 40
0
 40
0
 40
0
 40
0
 40
1
 40
1
 40
1
 40
1
 10
92.723721
 20
-87.285185
 30
0.0
 10
92.491550
 20
-87.845696
 30
0.0
 10
92.619883
 20
-88.490873
 30
0.0
 10
93.048880
 20
-88.919869
 30
0.0
  0
SPLINE
  5
13f
100
AcDbEntity
  8
0
 62
7
100
AcDbSpline
 70
8
 71
3
 72
8
 73
4
 74
0
 40
0
 40
0
 40
0
 40
0
 40
1
 40
1
 40
1
 40
1
 10
93.048880
 20
-88.919869
 30
0.0
 10
93.477877
 20
-89.348866
 30
0.0
 10
94.123054
 20
-89.477200
 30
0.0
 10
94.683565
 20
-89.245028
 30
0.0
  0
SPLINE
  5
140
100
AcDbEntity
  8
0
 62
7
100
AcDbSpline
 70
8
 71
3
 72
8
 73
4
 74
0
 40
0
 40
0
 40
0
 40
0
 40
1
 40
1
 40
1
 40
1
 10
94.683565
 20
-89.245028
 30
0.0
 10
95.244076
 20
-89.012857
 30
0.0
 10
95.609540
 20
-88.465903
 30
0.0
 10
95.609540
 20
-87.859210
 30
0.0
  0
SPLINE
  5
141
100
AcDbEntity
  8
0
 62
7
100
AcDbSpline
 70
8
 71
3
 72
8
 73
4
 74
0
 40
0
 40
0
 40
0
 40
0
 40
1
 40
1
 40
1
 40
1
 10
95.609540
 20
-87.859210
 30
0.0
 10
95.609540
 20
-87.461385
 30
0.0
 10
95.451504
 20
-87.079854
 30
0.0
 10
95.170200
 20
-86.798550
 30
0.0
  0
SPLINE
  5
142
100
AcDbEntity
  8
0
 62
7
100
AcDbSpline
 70
8
 71
3
 72
8
 73
4
 74
0
 40
0
 40
0
 40
0
 40
0
 40
1
 40
1
 40
1
 40
1
 10
95.170200
 20
-86.798550
 30
0.0
 10
94.888895
 20
-86.517245
 30
0.0
 10
94.507365
 20
-86.359210
 30
0.0
 10
94.109540
 20
-86.359210
 30
0.0
  0
LWPOLYLINE
  5
143
100
AcDbEntity
  8
0
 62
7
100
AcDbPolyline
 90
1
 70
1
 10
4.217187
 20
-86.359210
 30
0.0
  0
LWPOLYLINE
  5
144
100
AcDbEntity
  8
0
 62
7
100
AcDbPolyline
 90
1
 70
1
 10
94.109540
 20
-86.359210
 30
0.0
  0
SPLINE
  5
145
100
AcDbEntity
  8
0
 62
7
100
AcDbSpline
 70
8
 71
3
 72
8
 73
4
 74
0
 40
0
 40
0
 40
0
 40
0
 40
1
 40
1
 40
1
 40
1
 10
94.109540
 20
-1.824733
 30
0.0
 10
93.502847
 20
-1.824733
 30
0.0
 10
92.955893
 20
-2.190197
 30
0.0
 10
92.723721
 20
-2.750708
 30
0.0
  0
SPLINE
  5
146
100
AcDbEntity
  8
0
 62
7
100
AcDbSpline
 70
8
 71
3
 72
8
 73
4
 74
0
 40
0
 40
0
 40
0
 40
0
 40
1
 40
1
 40
1
 40
1
 10
92.723721
 20
-2.750708
 30
0.0
 10
92.491550
 20
-3.311219
 30
0.0
 10
92.619883
 20
-3.956396
 30
0.0
 10
93.048880
 20
-4.385393
 30
0.0
  0
SPLINE
  5
147
100
AcDbEntity
  8
0
 62
7
100
AcDbSpline
 70
8
 71
3
 72
8
 73
4
 74
0
 40
0
 40
0
 40
0
 40
0
 40
1
 40
1
 40
1
 40
1
 10
93.048880
 20
-4.385393
 30
0.0
 10
93.477877
 20
-4.814390
 30
0.0
 10
94.123054
 20
-4.942723
 30
0.0
 10
94.683565
 20
-4.710552
 30
0.0
  0
SPLINE
  5
148
100
AcDbEntity
  8
0
 62
7
100
AcDbSpline
 70
8
 71
3
 72
8
 73
4
 74
0
 40
0
 40
0
 40
0
 40
0
 40
1
 40
1
 40
1
 40
1
 10
94.683565
 20
-4.710552
 30
0.0
 10
95.244076
 20
-4.478380
 30
0.0
 10
95.609540
 20
-3.931426
 30
0.0
 10
95.609540
 20
-3.324733
 30
0.0
  0
SPLINE
  5
149
100
AcDbEntity
  8
0
 62
7
100
AcDbSpline
 70
8
 71
3
 72
8
 73
4
 74
0
 40
0
 40
0
 40
0
 40
0
 40
1
 40
1
 40
1
 40
1
 10
95.609540
 20
-3.324733
 30
0.0
 10
95.609540
 20
-2.926908
 30
0.0
 10
95.451504
 20
-2.545378
 30
0.0
 10
95.170200
 20
-2.264073
 30
0.0
  0
SPLINE
  5
14a
100
AcDbEntity
  8
0
 62
7
100
AcDbSpline
 70
8
 71
3
 72
8
 73
4
 74
0
 40
0
 40
0
 40
0
 40
0
 40
1
 40
1
 40
1
 40
1
 10
95.170200
 20
-2.264073
 30
0.0
 10
94.888895
 20
-1.982769
 30
0.0
 10
94.507365
 20
-1.824733
 30
0.0
 10
94.109540
 20
-1.824733
 30
0.0
  0
LWPOLYLINE
  5
14b
100
AcDbEntity
  8
0
 62
7
100
AcDbPolyline
 90
2
 70
0
 10
4.216400
 20
-92.025826
 30
0.0
 10
184.000140
 20
-92.025826
 30
0.0
  0
LWPOLYLINE
  5
14c
100
AcDbEntity
  8
0
 62
7
100
AcDbPolyline
 90
1
 70
1
 10
94.109540
 20
-1.824733
 30
0.0
  0
SPLINE
  5
14d
100
AcDbEntity
  8
0
 62
7
100
AcDbSpline
 70
8
 71
3
 72
8
 73
4
 74
0
 40
0
 40
0
 40
0
 40
0
 40
1
 40
1
 40
1
 40
1
 10
184.001664
 20
-1.824733
 30
0.0
 10
183.394971
 20
-1.824733
 30
0.0
 10
182.848017
 20
-2.190197
 30
0.0
 10
182.615845
 20
-2.750708
 30
0.0
  0
SPLINE
  5
14e
100
AcDbEntity
  8
0
 62
7
100
AcDbSpline
 70
8
 71
3
 72
8
 73
4
 74
0
 40
0
 40
0
 40
0
 40
0
 40
1
 40
1
 40
1
 40
1
 10
182.615845
 20
-2.750708
 30
0.0
 10
182.383674
 20
-3.311219
 30
0.0
 10
182.512007
 20
-3.956396
 30
0.0
 10
182.941004
 20
-4.385393
 30
0.0
  0
SPLINE
  5
14f
100
AcDbEntity
  8
0
 62
7
100
AcDbSpline
 70
8
 71
3
 72
8
 73
4
 74
0
 40
0
 40
0
 40
0
 40
0
 40
1
 40
1
 40
1
 40
1
 10
182.941004
 20
-4.385393
 30
0.0
 10
183.370001
 20
-4.814390
 30
0.0
 10
184.015178
 20
-4.942723
 30
0.0
 10
184.575689
 20
-4.710552
 30
0.0
  0
SPLINE
  5
150
100
AcDbEntity
  8
0
 62
7
100
AcDbSpline
 70
8
 71
3
 72
8
 73
4
 74
0
 40
0
 40
0
 40
0
 40
0
 40
1
 40
1
 40
1
 40
1
 10
184.575689
 20
-4.710552
 30
0.0
 10
185.136200
 20
-4.478380
 30
0.0
 10
185.501664
 20
-3.931426
 30
0.0
 10
185.501664
 20
-3.324733
 30
0.0
  0
SPLINE
  5
151
100
AcDbEntity
  8
0
 62
7
100
AcDbSpline
 70
8
 71
3
 72
8
 73
4
 74
0
 40
0
 40
0
 40
0
 40
0
 40
1
 40
1
 40
1
 40
1
 10
185.501664
 20
-3.324733
 30
0.0
 10
185.501664
 20
-2.926908
 30
0.0
 10
185.343628
 20
-2.545378
 30
0.0
 10
185.062324
 20
-2.264073
 30
0.0
  0
SPLINE
  5
152
100
AcDbEntity
  8
0
 62
7
100
AcDbSpline
 70
8
 71
3
 72
8
 73
4
 74
0
 40
0
 40
0
 40
0
 40
0
 40
1
 40
1
 40
1
 40
1
 10
185.062324
 20
-2.264073
 30
0.0
 10
184.781019
 20
-1.982769
 30
0.0
 10
184.399489
 20
-1.824733
 30
0.0
 10
184.001664
 20
-1.824733
 30
0.0
  0
LWPOLYLINE
  5
153
100
AcDbEntity
  8
0
 62
7
100
AcDbPolyline
 90
2
 70
0
 10
139.946380
 20
0.844194
 30
0.0
 10
4.216400
 20
0.844194
 30
0.0
  0
SPLINE
  5
154
100
AcDbEntity
  8
0
 62
7
100
AcDbSpline
 70
8
 71
3
 72
8
 73
4
 74
0
 40
0
 40
0
 40
0
 40
0
 40
1
 40
1
 40
1
 40
1
 10
184.001664
 20
-92.026334
 30
0.0
 10
186.303086
 20
-92.026292
 30
0.0
 10
188.168746
 20
-90.160631
 30
0.0
 10
188.168788
 20
-87.859210
 30
0.0
  0
SPLINE
  5
155
100
AcDbEntity
  8
0
 62
7
100
AcDbSpline
 70
8
 71
3
 72
8
 73
4
 74
0
 40
0
 40
0
 40
0
 40
0
 40
1
 40
1
 40
1
 40
1
 10
4.217187
 20
0.842453
 30
0.0
 10
1.915717
 20
0.842446
 30
0.0
 10
0.050008
 20
-1.023263
 30
0.0
 10
0.050001
 20
-3.324733
 30
0.0
  0
LWPOLYLINE
  5
156
100
AcDbEntity
  8
0
 62
7
100
AcDbPolyline
 90
1
 70
1
 10
184.001664
 20
-1.824733
 30
0.0
  0
LWPOLYLINE
  5
157
100
AcDbEntity
  8
0
 62
7
100
AcDbPolyline
 90
2
 70
0
 10
184.000140
 20
0.844194
 30
0.0
 10
162.570160
 20
0.844194
 30
0.0
  0
ENDSEC
  0
SECTION
  2
OBJECTS
  0
DICTIONARY
  5
C
330
0
100
AcDbDictionary
  3
ACAD_GROUP
350
D
  3
ACAD_MLINESTYLE
350
17
  0
DICTIONARY
  5
D
330
C
100
AcDbDictionary
  0
DICTIONARY
  5
1A
330
C
100
AcDbDictionary
  0
DICTIONARY
  5
17
330
C
100
AcDbDictionary
  3
STANDARD
350
18
  0
DICTIONARY
  5
19
330
C
100
AcDbDictionary
  0
ENDSEC
  0
EOF
