  0
SECTION
  2
HEADER
  9
$ACADVER
  1
AC1014
  9
$HANDSEED
  5
FFFF
  9
$MEASUREMENT
 70
     1
  0
ENDSEC
  0
SECTION
  2
TABLES
  0
TABLE
  2
VPORT
  5
8
330
0
100
AcDbSymbolTable
 70
     4
  0
VPORT
  5
2E
330
8
100
AcDbSymbolTableRecord
100
AcDbViewportTableRecord
  2
*ACTIVE
 70
     0
 10
0.0
 20
0.0
 11
1.0
 21
1.0
 12
210.0
 22
148.5
 13
0.0
 23
0.0
 14
10.0
 24
10.0
 15
10.0
 25
10.0
 16
0.0
 26
0.0
 36
1.0
 17
0.0
 27
0.0
 37
0.0
 40
341.0
 41
1.24
 42
50.0
 43
0.0
 44
0.0
 50
0.0
 51
0.0
 71
     0
 72
   100
 73
     1
 74
     3
 75
     0
 76
     0
 77
     0
 78
     0
  0
ENDTAB
  0
TABLE
  2
LTYPE
  5
5
330
0
100
AcDbSymbolTable
 70
     1
  0
LTYPE
  5
14
330
5
100
AcDbSymbolTableRecord
100
AcDbLinetypeTableRecord
  2
BYBLOCK
 70
     0
  3

 72
    65
 73
     0
 40
0.0
  0
LTYPE
  5
15
330
5
100
AcDbSymbolTableRecord
100
AcDbLinetypeTableRecord
  2
BYLAYER
 70
     0
  3

 72
    65
 73
     0
 40
0.0
  0
LTYPE
  5
16
330
5
100
AcDbSymbolTableRecord
100
AcDbLinetypeTableRecord
  2
CONTINUOUS
 70
     0
  3
Solid line
 72
    65
 73
     0
 40
0.0
  0
ENDTAB
  0
TABLE
  2
LAYER
  5
2
100
AcDbSymbolTable
 70
1
  0
LAYER
  5
50
100
AcDbSymbolTableRecord
100
AcDbLayerTableRecord
  2
0
 70
0
  6
CONTINUOUS
  0
ENDTAB
  0
TABLE
  2
STYLE
  5
3
330
0
100
AcDbSymbolTable
 70
     1
  0
STYLE
  5
11
330
3
100
AcDbSymbolTableRecord
100
AcDbTextStyleTableRecord
  2
STANDARD
 70
     0
 40
0.0
 41
1.0
 50
0.0
 71
     0
 42
2.5
  3
txt
  4

  0
ENDTAB
  0
TABLE
  2
VIEW
  5
6
330
0
100
AcDbSymbolTable
 70
     0
  0
ENDTAB
  0
TABLE
  2
UCS
  5
7
330
0
100
AcDbSymbolTable
 70
     0
  0
ENDTAB
  0
TABLE
  2
APPID
  5
9
330
0
100
AcDbSymbolTable
 70
     2
  0
APPID
  5
12
330
9
100
AcDbSymbolTableRecord
100
AcDbRegAppTableRecord
  2
ACAD
 70
     0
  0
ENDTAB
  0
TABLE
  2
DIMSTYLE
  5
A
330
0
100
AcDbSymbolTable
 70
     1
  0
DIMSTYLE
105
27
330
A
100
AcDbSymbolTableRecord
100
AcDbDimStyleTableRecord
  2
ISO-25
 70
     0
  3

  4

  5

  6

  7

 40
1.0
 41
2.5
 42
0.625
 43
3.75
 44
1.25
 45
0.0
 46
0.0
 47
0.0
 48
0.0
140
2.5
141
2.5
142
0.0
143
0.03937007874016
144
1.0
145
0.0
146
1.0
147
0.625
 71
     0
 72
     0
 73
     0
 74
     0
 75
     0
 76
     0
 77
     1
 78
     8
170
     0
171
     3
172
     1
173
     0
174
     0
175
     0
176
     0
177
     0
178
     0
270
     2
271
     2
272
     2
273
     2
274
     3
340
11
275
     0
280
     0
281
     0
282
     0
283
     0
284
     8
285
     0
286
     0
287
     3
288
     0
  0
ENDTAB
  0
TABLE
  2
BLOCK_RECORD
  5
1
330
0
100
AcDbSymbolTable
 70
     1
  0
BLOCK_RECORD
  5
1F
330
1
100
AcDbSymbolTableRecord
100
AcDbBlockTableRecord
  2
*MODEL_SPACE
  0
BLOCK_RECORD
  5
1B
330
1
100
AcDbSymbolTableRecord
100
AcDbBlockTableRecord
  2
*PAPER_SPACE
  0
ENDTAB
  0
ENDSEC
  0
SECTION
  2
BLOCKS
  0
BLOCK
  5
20
330
1F
100
AcDbEntity
  8
0
100
AcDbBlockBegin
  2
*MODEL_SPACE
 70
     0
 10
0.0
 20
0.0
 30
0.0
  3
*MODEL_SPACE
  1

  0
ENDBLK
  5
21
330
1F
100
AcDbEntity
  8
0
100
AcDbBlockEnd
  0
BLOCK
  5
1C
330
1B
100
AcDbEntity
 67
     1
  8
0
100
AcDbBlockBegin
  2
*PAPER_SPACE
  1

  0
ENDBLK
  5
1D
330
1B
100
AcDbEntity
 67
     1
  8
0
100
AcDbBlockEnd
  0
ENDSEC
  0
SECTION
  2
ENTITIES
  0
SPLINE
  5
100
100
AcDbEntity
  8
0
 62
7
100
AcDbSpline
 70
8
 71
3
 72
8
 73
4
 74
0
 40
0
 40
0
 40
0
 40
0
 40
1
 40
1
 40
1
 40
1
 10
162.556698
 20
-5.007559
 30
0.0
 10
162.556701
 20
-6.388218
 30
0.0
 10
163.675908
 20
-7.507481
 30
0.0
 10
165.056566
 20
-7.507554
 30
0.0
  0
SPLINE
  5
101
100
AcDbEntity
  8
0
 62
7
100
AcDbSpline
 70
8
 71
3
 72
8
 73
4
 74
0
 40
0
 40
0
 40
0
 40
0
 40
1
 40
1
 40
1
 40
1
 10
137.456672
 20
-7.507554
 30
0.0
 10
138.837330
 20
-7.507481
 30
0.0
 10
139.956537
 20
-6.388218
 30
0.0
 10
139.956540
 20
-5.007559
 30
0.0
  0
SPLINE
  5
102
100
AcDbEntity
  8
0
 62
7
100
AcDbSpline
 70
8
 71
3
 72
8
 73
4
 74
0
 40
0
 40
0
 40
0
 40
0
 40
1
 40
1
 40
1
 40
1
 10
165.056566
 20
0.842453
 30
0.0
 10
163.675903
 20
0.842381
 30
0.0
 10
162.556694
 20
-0.276890
 30
0.0
 10
162.556698
 20
-1.657553
 30
0.0
  0
SPLINE
  5
103
100
AcDbEntity
  8
0
 62
7
100
AcDbSpline
 70
8
 71
3
 72
8
 73
4
 74
0
 40
0
 40
0
 40
0
 40
0
 40
1
 40
1
 40
1
 40
1
 10
139.956540
 20
-1.657553
 30
0.0
 10
139.956544
 20
-0.276890
 30
0.0
 10
138.837335
 20
0.842381
 30
0.0
 10
137.456672
 20
0.842453
 30
0.0
  0
SPLINE
  5
104
100
AcDbEntity
  8
0
 62
7
100
AcDbSpline
 70
8
 71
3
 72
8
 73
4
 74
0
 40
0
 40
0
 40
0
 40
0
 40
1
 40
1
 40
1
 40
1
 10
184.001664
 20
-92.037510
 30
0.0
 10
185.106892
 20
-92.037489
 30
0.0
 10
186.166843
 20
-91.598413
 30
0.0
 10
186.948333
 20
-90.816875
 30
0.0
  0
SPLINE
  5
105
100
AcDbEntity
  8
0
 62
7
100
AcDbSpline
 70
8
 71
3
 72
8
 73
4
 74
0
 40
0
 40
0
 40
0
 40
0
 40
1
 40
1
 40
1
 40
1
 10
186.948333
 20
-90.816875
 30
0.0
 10
187.729823
 20
-90.035337
 30
0.0
 10
188.168835
 20
-88.975359
 30
0.0
 10
188.168788
 20
-87.870132
 30
0.0
  0
LWPOLYLINE
  5
106
100
AcDbEntity
  8
0
 62
7
100
AcDbPolyline
 90
2
 70
0
 10
179.832000
 20
-83.707326
 30
0.0
 10
8.384540
 20
-83.702246
 30
0.0
  0
SPLINE
  5
107
100
AcDbEntity
  8
0
 62
7
100
AcDbSpline
 70
8
 71
3
 72
8
 73
4
 74
0
 40
0
 40
0
 40
0
 40
0
 40
1
 40
1
 40
1
 40
1
 10
184.001664
 20
-85.245143
 30
0.0
 10
182.551923
 20
-85.245143
 30
0.0
 10
181.376676
 20
-86.420391
 30
0.0
 10
181.376676
 20
-87.870132
 30
0.0
  0
SPLINE
  5
108
100
AcDbEntity
  8
0
 62
7
100
AcDbSpline
 70
8
 71
3
 72
8
 73
4
 74
0
 40
0
 40
0
 40
0
 40
0
 40
1
 40
1
 40
1
 40
1
 10
181.376676
 20
-87.870132
 30
0.0
 10
181.376676
 20
-89.319873
 30
0.0
 10
182.551923
 20
-90.495120
 30
0.0
 10
184.001664
 20
-90.495120
 30
0.0
  0
SPLINE
  5
109
100
AcDbEntity
  8
0
 62
7
100
AcDbSpline
 70
8
 71
3
 72
8
 73
4
 74
0
 40
0
 40
0
 40
0
 40
0
 40
1
 40
1
 40
1
 40
1
 10
184.001664
 20
-90.495120
 30
0.0
 10
185.451405
 20
-90.495120
 30
0.0
 10
186.626652
 20
-89.319873
 30
0.0
 10
186.626652
 20
-87.870132
 30
0.0
  0
SPLINE
  5
10a
100
AcDbEntity
  8
0
 62
7
100
AcDbSpline
 70
8
 71
3
 72
8
 73
4
 74
0
 40
0
 40
0
 40
0
 40
0
 40
1
 40
1
 40
1
 40
1
 10
186.626652
 20
-87.870132
 30
0.0
 10
186.626652
 20
-87.173941
 30
0.0
 10
186.350092
 20
-86.506265
 30
0.0
 10
185.857811
 20
-86.013985
 30
0.0
  0
SPLINE
  5
10b
100
AcDbEntity
  8
0
 62
7
100
AcDbSpline
 70
8
 71
3
 72
8
 73
4
 74
0
 40
0
 40
0
 40
0
 40
0
 40
1
 40
1
 40
1
 40
1
 10
185.857811
 20
-86.013985
 30
0.0
 10
185.365530
 20
-85.521704
 30
0.0
 10
184.697854
 20
-85.245143
 30
0.0
 10
184.001664
 20
-85.245143
 30
0.0
  0
LWPOLYLINE
  5
10c
100
AcDbEntity
  8
0
 62
7
100
AcDbPolyline
 90
2
 70
0
 10
137.454640
 20
0.844194
 30
0.0
 10
4.216400
 20
0.831494
 30
0.0
  0
SPLINE
  5
10d
100
AcDbEntity
  8
0
 62
7
100
AcDbSpline
 70
8
 71
3
 72
8
 73
4
 74
0
 40
0
 40
0
 40
0
 40
0
 40
1
 40
1
 40
1
 40
1
 10
94.109540
 20
-0.710768
 30
0.0
 10
93.047831
 20
-0.710768
 30
0.0
 10
92.090665
 20
-1.350326
 30
0.0
 10
91.684367
 20
-2.331217
 30
0.0
  0
SPLINE
  5
10e
100
AcDbEntity
  8
0
 62
7
100
AcDbSpline
 70
8
 71
3
 72
8
 73
4
 74
0
 40
0
 40
0
 40
0
 40
0
 40
1
 40
1
 40
1
 40
1
 10
91.684367
 20
-2.331217
 30
0.0
 10
91.278069
 20
-3.312108
 30
0.0
 10
91.502651
 20
-4.441162
 30
0.0
 10
92.253393
 20
-5.191904
 30
0.0
  0
SPLINE
  5
10f
100
AcDbEntity
  8
0
 62
7
100
AcDbSpline
 70
8
 71
3
 72
8
 73
4
 74
0
 40
0
 40
0
 40
0
 40
0
 40
1
 40
1
 40
1
 40
1
 10
92.253393
 20
-5.191904
 30
0.0
 10
93.004134
 20
-5.942645
 30
0.0
 10
94.133189
 20
-6.167228
 30
0.0
 10
95.114080
 20
-5.760930
 30
0.0
  0
SPLINE
  5
110
100
AcDbEntity
  8
0
 62
7
100
AcDbSpline
 70
8
 71
3
 72
8
 73
4
 74
0
 40
0
 40
0
 40
0
 40
0
 40
1
 40
1
 40
1
 40
1
 10
95.114080
 20
-5.760930
 30
0.0
 10
96.094971
 20
-5.354631
 30
0.0
 10
96.734528
 20
-4.397465
 30
0.0
 10
96.734528
 20
-3.335757
 30
0.0
  0
SPLINE
  5
111
100
AcDbEntity
  8
0
 62
7
100
AcDbSpline
 70
8
 71
3
 72
8
 73
4
 74
0
 40
0
 40
0
 40
0
 40
0
 40
1
 40
1
 40
1
 40
1
 10
96.734528
 20
-3.335757
 30
0.0
 10
96.734528
 20
-2.639566
 30
0.0
 10
96.457968
 20
-1.971890
 30
0.0
 10
95.965687
 20
-1.479610
 30
0.0
  0
SPLINE
  5
112
100
AcDbEntity
  8
0
 62
7
100
AcDbSpline
 70
8
 71
3
 72
8
 73
4
 74
0
 40
0
 40
0
 40
0
 40
0
 40
1
 40
1
 40
1
 40
1
 10
95.965687
 20
-1.479610
 30
0.0
 10
95.473406
 20
-0.987329
 30
0.0
 10
94.805730
 20
-0.710768
 30
0.0
 10
94.109540
 20
-0.710768
 30
0.0
  0
LWPOLYLINE
  5
113
100
AcDbEntity
  8
0
 62
7
100
AcDbPolyline
 90
1
 70
1
 10
184.001664
 20
-85.245143
 30
0.0
  0
SPLINE
  5
114
100
AcDbEntity
  8
0
 62
7
100
AcDbSpline
 70
8
 71
3
 72
8
 73
4
 74
0
 40
0
 40
0
 40
0
 40
0
 40
1
 40
1
 40
1
 40
1
 10
4.217187
 20
-0.710768
 30
0.0
 10
3.155479
 20
-0.710768
 30
0.0
 10
2.198313
 20
-1.350326
 30
0.0
 10
1.792014
 20
-2.331217
 30
0.0
  0
SPLINE
  5
115
100
AcDbEntity
  8
0
 62
7
100
AcDbSpline
 70
8
 71
3
 72
8
 73
4
 74
0
 40
0
 40
0
 40
0
 40
0
 40
1
 40
1
 40
1
 40
1
 10
1.792014
 20
-2.331217
 30
0.0
 10
1.385716
 20
-3.312108
 30
0.0
 10
1.610299
 20
-4.441162
 30
0.0
 10
2.361040
 20
-5.191904
 30
0.0
  0
SPLINE
  5
116
100
AcDbEntity
  8
0
 62
7
100
AcDbSpline
 70
8
 71
3
 72
8
 73
4
 74
0
 40
0
 40
0
 40
0
 40
0
 40
1
 40
1
 40
1
 40
1
 10
2.361040
 20
-5.191904
 30
0.0
 10
3.111782
 20
-5.942645
 30
0.0
 10
4.240836
 20
-6.167228
 30
0.0
 10
5.221727
 20
-5.760930
 30
0.0
  0
SPLINE
  5
117
100
AcDbEntity
  8
0
 62
7
100
AcDbSpline
 70
8
 71
3
 72
8
 73
4
 74
0
 40
0
 40
0
 40
0
 40
0
 40
1
 40
1
 40
1
 40
1
 10
5.221727
 20
-5.760930
 30
0.0
 10
6.202618
 20
-5.354631
 30
0.0
 10
6.842176
 20
-4.397465
 30
0.0
 10
6.842176
 20
-3.335757
 30
0.0
  0
SPLINE
  5
118
100
AcDbEntity
  8
0
 62
7
100
AcDbSpline
 70
8
 71
3
 72
8
 73
4
 74
0
 40
0
 40
0
 40
0
 40
0
 40
1
 40
1
 40
1
 40
1
 10
6.842176
 20
-3.335757
 30
0.0
 10
6.842176
 20
-2.639566
 30
0.0
 10
6.565615
 20
-1.971890
 30
0.0
 10
6.073334
 20
-1.479610
 30
0.0
  0
SPLINE
  5
119
100
AcDbEntity
  8
0
 62
7
100
AcDbSpline
 70
8
 71
3
 72
8
 73
4
 74
0
 40
0
 40
0
 40
0
 40
0
 40
1
 40
1
 40
1
 40
1
 10
6.073334
 20
-1.479610
 30
0.0
 10
5.581054
 20
-0.987329
 30
0.0
 10
4.913378
 20
-0.710768
 30
0.0
 10
4.217187
 20
-0.710768
 30
0.0
  0
LWPOLYLINE
  5
11a
100
AcDbEntity
  8
0
 62
7
100
AcDbPolyline
 90
1
 70
1
 10
94.109540
 20
-0.710768
 30
0.0
  0
LWPOLYLINE
  5
11b
100
AcDbEntity
  8
0
 62
7
100
AcDbPolyline
 90
1
 70
1
 10
4.217187
 20
-0.710768
 30
0.0
  0
LWPOLYLINE
  5
11c
100
AcDbEntity
  8
0
 62
7
100
AcDbPolyline
 90
2
 70
0
 10
139.956540
 20
-5.005426
 30
0.0
 10
139.956540
 20
-1.655166
 30
0.0
  0
LWPOLYLINE
  5
11d
100
AcDbEntity
  8
0
 62
7
100
AcDbPolyline
 90
2
 70
0
 10
165.054280
 20
-7.507326
 30
0.0
 10
179.832000
 20
-7.502246
 30
0.0
  0
LWPOLYLINE
  5
11e
100
AcDbEntity
  8
0
 62
7
100
AcDbPolyline
 90
2
 70
0
 10
8.384540
 20
-83.702246
 30
0.0
 10
8.382000
 20
-7.502246
 30
0.0
  0
SPLINE
  5
11f
100
AcDbEntity
  8
0
 62
7
100
AcDbSpline
 70
8
 71
3
 72
8
 73
4
 74
0
 40
0
 40
0
 40
0
 40
0
 40
1
 40
1
 40
1
 40
1
 10
188.168788
 20
-3.335757
 30
0.0
 10
188.168787
 20
-1.034306
 30
0.0
 10
186.303115
 20
0.831400
 30
0.0
 10
184.001664
 20
0.831442
 30
0.0
  0
LWPOLYLINE
  5
120
100
AcDbEntity
  8
0
 62
7
100
AcDbPolyline
 90
2
 70
0
 10
188.168280
 20
-87.867846
 30
0.0
 10
188.168280
 20
-3.334106
 30
0.0
  0
LWPOLYLINE
  5
121
100
AcDbEntity
  8
0
 62
7
100
AcDbPolyline
 90
2
 70
0
 10
165.054280
 20
0.844194
 30
0.0
 10
184.000140
 20
0.831494
 30
0.0
  0
LWPOLYLINE
  5
122
100
AcDbEntity
  8
0
 62
7
100
AcDbPolyline
 90
2
 70
0
 10
0.048260
 20
-3.334106
 30
0.0
 10
0.048260
 20
-87.867846
 30
0.0
  0
SPLINE
  5
123
100
AcDbEntity
  8
0
 62
7
100
AcDbSpline
 70
8
 71
3
 72
8
 73
4
 74
0
 40
0
 40
0
 40
0
 40
0
 40
1
 40
1
 40
1
 40
1
 10
4.217187
 20
-85.245143
 30
0.0
 10
3.155479
 20
-85.245143
 30
0.0
 10
2.198313
 20
-85.884701
 30
0.0
 10
1.792014
 20
-86.865592
 30
0.0
  0
SPLINE
  5
124
100
AcDbEntity
  8
0
 62
7
100
AcDbSpline
 70
8
 71
3
 72
8
 73
4
 74
0
 40
0
 40
0
 40
0
 40
0
 40
1
 40
1
 40
1
 40
1
 10
1.792014
 20
-86.865592
 30
0.0
 10
1.385716
 20
-87.846483
 30
0.0
 10
1.610299
 20
-88.975537
 30
0.0
 10
2.361040
 20
-89.726279
 30
0.0
  0
SPLINE
  5
125
100
AcDbEntity
  8
0
 62
7
100
AcDbSpline
 70
8
 71
3
 72
8
 73
4
 74
0
 40
0
 40
0
 40
0
 40
0
 40
1
 40
1
 40
1
 40
1
 10
2.361040
 20
-89.726279
 30
0.0
 10
3.111782
 20
-90.477020
 30
0.0
 10
4.240836
 20
-90.701603
 30
0.0
 10
5.221727
 20
-90.295305
 30
0.0
  0
SPLINE
  5
126
100
AcDbEntity
  8
0
 62
7
100
AcDbSpline
 70
8
 71
3
 72
8
 73
4
 74
0
 40
0
 40
0
 40
0
 40
0
 40
1
 40
1
 40
1
 40
1
 10
5.221727
 20
-90.295305
 30
0.0
 10
6.202618
 20
-89.889006
 30
0.0
 10
6.842176
 20
-88.931840
 30
0.0
 10
6.842176
 20
-87.870132
 30
0.0
  0
SPLINE
  5
127
100
AcDbEntity
  8
0
 62
7
100
AcDbSpline
 70
8
 71
3
 72
8
 73
4
 74
0
 40
0
 40
0
 40
0
 40
0
 40
1
 40
1
 40
1
 40
1
 10
6.842176
 20
-87.870132
 30
0.0
 10
6.842176
 20
-87.173941
 30
0.0
 10
6.565615
 20
-86.506265
 30
0.0
 10
6.073334
 20
-86.013985
 30
0.0
  0
SPLINE
  5
128
100
AcDbEntity
  8
0
 62
7
100
AcDbSpline
 70
8
 71
3
 72
8
 73
4
 74
0
 40
0
 40
0
 40
0
 40
0
 40
1
 40
1
 40
1
 40
1
 10
6.073334
 20
-86.013985
 30
0.0
 10
5.581054
 20
-85.521704
 30
0.0
 10
4.913378
 20
-85.245143
 30
0.0
 10
4.217187
 20
-85.245143
 30
0.0
  0
LWPOLYLINE
  5
129
100
AcDbEntity
  8
0
 62
7
100
AcDbPolyline
 90
2
 70
0
 10
179.832000
 20
-7.502246
 30
0.0
 10
179.832000
 20
-83.707326
 30
0.0
  0
LWPOLYLINE
  5
12a
100
AcDbEntity
  8
0
 62
7
100
AcDbPolyline
 90
1
 70
1
 10
4.217187
 20
-85.245143
 30
0.0
  0
LWPOLYLINE
  5
12b
100
AcDbEntity
  8
0
 62
7
100
AcDbPolyline
 90
2
 70
0
 10
8.382000
 20
-7.502246
 30
0.0
 10
137.454640
 20
-7.507326
 30
0.0
  0
LWPOLYLINE
  5
12c
100
AcDbEntity
  8
0
 62
7
100
AcDbPolyline
 90
2
 70
0
 10
162.554920
 20
-5.005426
 30
0.0
 10
162.554920
 20
-1.655166
 30
0.0
  0
SPLINE
  5
12d
100
AcDbEntity
  8
0
 62
7
100
AcDbSpline
 70
8
 71
3
 72
8
 73
4
 74
0
 40
0
 40
0
 40
0
 40
0
 40
1
 40
1
 40
1
 40
1
 10
0.050001
 20
-87.870132
 30
0.0
 10
0.049954
 20
-88.975370
 30
0.0
 10
0.488974
 20
-90.035358
 30
0.0
 10
1.270478
 20
-90.816897
 30
0.0
  0
SPLINE
  5
12e
100
AcDbEntity
  8
0
 62
7
100
AcDbSpline
 70
8
 71
3
 72
8
 73
4
 74
0
 40
0
 40
0
 40
0
 40
0
 40
1
 40
1
 40
1
 40
1
 10
1.270478
 20
-90.816897
 30
0.0
 10
2.051982
 20
-91.598437
 30
0.0
 10
3.111949
 20
-92.037506
 30
0.0
 10
4.217187
 20
-92.037510
 30
0.0
  0
SPLINE
  5
12f
100
AcDbEntity
  8
0
 62
7
100
AcDbSpline
 70
8
 71
3
 72
8
 73
4
 74
0
 40
0
 40
0
 40
0
 40
0
 40
1
 40
1
 40
1
 40
1
 10
94.109540
 20
-85.245143
 30
0.0
 10
93.047831
 20
-85.245143
 30
0.0
 10
92.090665
 20
-85.884701
 30
0.0
 10
91.684367
 20
-86.865592
 30
0.0
  0
SPLINE
  5
130
100
AcDbEntity
  8
0
 62
7
100
AcDbSpline
 70
8
 71
3
 72
8
 73
4
 74
0
 40
0
 40
0
 40
0
 40
0
 40
1
 40
1
 40
1
 40
1
 10
91.684367
 20
-86.865592
 30
0.0
 10
91.278069
 20
-87.846483
 30
0.0
 10
91.502651
 20
-88.975537
 30
0.0
 10
92.253393
 20
-89.726279
 30
0.0
  0
SPLINE
  5
131
100
AcDbEntity
  8
0
 62
7
100
AcDbSpline
 70
8
 71
3
 72
8
 73
4
 74
0
 40
0
 40
0
 40
0
 40
0
 40
1
 40
1
 40
1
 40
1
 10
92.253393
 20
-89.726279
 30
0.0
 10
93.004134
 20
-90.477020
 30
0.0
 10
94.133189
 20
-90.701603
 30
0.0
 10
95.114080
 20
-90.295305
 30
0.0
  0
SPLINE
  5
132
100
AcDbEntity
  8
0
 62
7
100
AcDbSpline
 70
8
 71
3
 72
8
 73
4
 74
0
 40
0
 40
0
 40
0
 40
0
 40
1
 40
1
 40
1
 40
1
 10
95.114080
 20
-90.295305
 30
0.0
 10
96.094971
 20
-89.889006
 30
0.0
 10
96.734528
 20
-88.931840
 30
0.0
 10
96.734528
 20
-87.870132
 30
0.0
  0
SPLINE
  5
133
100
AcDbEntity
  8
0
 62
7
100
AcDbSpline
 70
8
 71
3
 72
8
 73
4
 74
0
 40
0
 40
0
 40
0
 40
0
 40
1
 40
1
 40
1
 40
1
 10
96.734528
 20
-87.870132
 30
0.0
 10
96.734528
 20
-87.173941
 30
0.0
 10
96.457968
 20
-86.506265
 30
0.0
 10
95.965687
 20
-86.013985
 30
0.0
  0
SPLINE
  5
134
100
AcDbEntity
  8
0
 62
7
100
AcDbSpline
 70
8
 71
3
 72
8
 73
4
 74
0
 40
0
 40
0
 40
0
 40
0
 40
1
 40
1
 40
1
 40
1
 10
95.965687
 20
-86.013985
 30
0.0
 10
95.473406
 20
-85.521704
 30
0.0
 10
94.805730
 20
-85.245143
 30
0.0
 10
94.109540
 20
-85.245143
 30
0.0
  0
LWPOLYLINE
  5
135
100
AcDbEntity
  8
0
 62
7
100
AcDbPolyline
 90
2
 70
0
 10
4.216400
 20
-92.035986
 30
0.0
 10
184.000140
 20
-92.035986
 30
0.0
  0
SPLINE
  5
136
100
AcDbEntity
  8
0
 62
7
100
AcDbSpline
 70
8
 71
3
 72
8
 73
4
 74
0
 40
0
 40
0
 40
0
 40
0
 40
1
 40
1
 40
1
 40
1
 10
4.217187
 20
0.831442
 30
0.0
 10
1.915712
 20
0.831435
 30
0.0
 10
0.050002
 20
-1.034281
 30
0.0
 10
0.050001
 20
-3.335757
 30
0.0
  0
SPLINE
  5
137
100
AcDbEntity
  8
0
 62
7
100
AcDbSpline
 70
8
 71
3
 72
8
 73
4
 74
0
 40
0
 40
0
 40
0
 40
0
 40
1
 40
1
 40
1
 40
1
 10
184.001664
 20
-0.710768
 30
0.0
 10
182.551923
 20
-0.710768
 30
0.0
 10
181.376676
 20
-1.886016
 30
0.0
 10
181.376676
 20
-3.335757
 30
0.0
  0
SPLINE
  5
138
100
AcDbEntity
  8
0
 62
7
100
AcDbSpline
 70
8
 71
3
 72
8
 73
4
 74
0
 40
0
 40
0
 40
0
 40
0
 40
1
 40
1
 40
1
 40
1
 10
181.376676
 20
-3.335757
 30
0.0
 10
181.376676
 20
-4.785498
 30
0.0
 10
182.551923
 20
-5.960745
 30
0.0
 10
184.001664
 20
-5.960745
 30
0.0
  0
SPLINE
  5
139
100
AcDbEntity
  8
0
 62
7
100
AcDbSpline
 70
8
 71
3
 72
8
 73
4
 74
0
 40
0
 40
0
 40
0
 40
0
 40
1
 40
1
 40
1
 40
1
 10
184.001664
 20
-5.960745
 30
0.0
 10
185.451405
 20
-5.960745
 30
0.0
 10
186.626652
 20
-4.785498
 30
0.0
 10
186.626652
 20
-3.335757
 30
0.0
  0
SPLINE
  5
13a
100
AcDbEntity
  8
0
 62
7
100
AcDbSpline
 70
8
 71
3
 72
8
 73
4
 74
0
 40
0
 40
0
 40
0
 40
0
 40
1
 40
1
 40
1
 40
1
 10
186.626652
 20
-3.335757
 30
0.0
 10
186.626652
 20
-2.639566
 30
0.0
 10
186.350092
 20
-1.971890
 30
0.0
 10
185.857811
 20
-1.479610
 30
0.0
  0
SPLINE
  5
13b
100
AcDbEntity
  8
0
 62
7
100
AcDbSpline
 70
8
 71
3
 72
8
 73
4
 74
0
 40
0
 40
0
 40
0
 40
0
 40
1
 40
1
 40
1
 40
1
 10
185.857811
 20
-1.479610
 30
0.0
 10
185.365530
 20
-0.987329
 30
0.0
 10
184.697854
 20
-0.710768
 30
0.0
 10
184.001664
 20
-0.710768
 30
0.0
  0
LWPOLYLINE
  5
13c
100
AcDbEntity
  8
0
 62
7
100
AcDbPolyline
 90
1
 70
1
 10
94.109540
 20
-85.245143
 30
0.0
  0
LWPOLYLINE
  5
13d
100
AcDbEntity
  8
0
 62
7
100
AcDbPolyline
 90
1
 70
1
 10
184.001664
 20
-0.710768
 30
0.0
  0
ENDSEC
  0
SECTION
  2
OBJECTS
  0
DICTIONARY
  5
C
330
0
100
AcDbDictionary
  3
ACAD_GROUP
350
D
  3
ACAD_MLINESTYLE
350
17
  0
DICTIONARY
  5
D
330
C
100
AcDbDictionary
  0
DICTIONARY
  5
1A
330
C
100
AcDbDictionary
  0
DICTIONARY
  5
17
330
C
100
AcDbDictionary
  3
STANDARD
350
18
  0
DICTIONARY
  5
19
330
C
100
AcDbDictionary
  0
ENDSEC
  0
EOF
