M48
; DRILL file {KiCad (5.1.9)-1} date 08/24/21 15:28:59
; FORMAT={-:-/ absolute / inch / decimal}
; #@! TF.CreationDate,2021-08-24T15:28:59-07:00
; #@! TF.GenerationSoftware,Kicad,Pcbnew,(5.1.9)-1
; #@! TF.FileFunction,NonPlated,1,2,NPTH
FMAT,2
INCH
T1C0.0689
T2C0.1570
%
G90
G05
T1
X1.1125Y-1.2656
X1.1125Y-2.0156
X1.1125Y-2.7656
X1.5125Y-1.2656
X1.5125Y-2.0156
X1.5125Y-2.7656
X1.5813Y-3.5156
X1.8625Y-1.2656
X1.8625Y-2.0156
X1.8625Y-2.7656
X1.9813Y-3.5156
X2.2625Y-1.2656
X2.2625Y-2.0156
X2.2625Y-2.7656
X2.6125Y-1.2656
X2.6125Y-2.0156
X2.6125Y-2.7656
X2.7063Y-3.5156
X3.0125Y-1.2656
X3.0125Y-2.0156
X3.0125Y-2.7656
X3.1063Y-3.5156
X3.3625Y-1.2656
X3.3625Y-2.0156
X3.3625Y-2.7656
X3.7625Y-1.2656
X3.7625Y-2.0156
X3.7625Y-2.7656
X3.8313Y-3.6094
X4.2063Y-1.3594
X4.2063Y-2.1094
X4.2063Y-2.8594
X4.2313Y-3.6094
X4.5813Y-3.6094
X4.6063Y-1.3594
X4.6063Y-2.1094
X4.6063Y-2.8594
X4.9813Y-3.6094
X5.05Y-1.2656
X5.05Y-2.0156
X5.05Y-2.7656
X5.45Y-1.2656
X5.45Y-2.0156
X5.45Y-2.7656
X5.7063Y-3.5156
X5.8Y-1.2656
X5.8Y-2.0156
X5.8Y-2.7656
X6.1063Y-3.5156
X6.2Y-1.2656
X6.2Y-2.0156
X6.2Y-2.7656
X6.55Y-1.2656
X6.55Y-2.0156
X6.55Y-2.7656
X6.8313Y-3.5156
X6.95Y-1.2656
X6.95Y-2.0156
X6.95Y-2.7656
X7.2313Y-3.5156
X7.3Y-1.2656
X7.3Y-2.0156
X7.3Y-2.7656
X7.7Y-1.2656
X7.7Y-2.0156
X7.7Y-2.7656
T2
X1.3125Y-1.2656
X1.3125Y-2.0156
X1.3125Y-2.7656
X1.7813Y-3.5156
X2.0625Y-1.2656
X2.0625Y-2.0156
X2.0625Y-2.7656
X2.8125Y-1.2656
X2.8125Y-2.0156
X2.8125Y-2.7656
X2.9063Y-3.5156
X3.5625Y-1.2656
X3.5625Y-2.0156
X3.5625Y-2.7656
X4.0313Y-3.6094
X4.4063Y-1.3594
X4.4063Y-2.1094
X4.4063Y-2.8594
X4.7813Y-3.6094
X5.25Y-1.2656
X5.25Y-2.0156
X5.25Y-2.7656
X5.9063Y-3.5156
X6.0Y-1.2656
X6.0Y-2.0156
X6.0Y-2.7656
X6.75Y-1.2656
X6.75Y-2.0156
X6.75Y-2.7656
X7.0313Y-3.5156
X7.5Y-1.2656
X7.5Y-2.0156
X7.5Y-2.7656
T0
M30
