%TF.GenerationSoftware,KiCad,Pcbnew,(5.1.9)-1*%
%TF.CreationDate,2021-08-24T15:28:57-07:00*%
%TF.ProjectId,DropDN - redesign2,44726f70-444e-4202-9d20-726564657369,rev?*%
%TF.SameCoordinates,Original*%
%TF.FileFunction,Soldermask,Top*%
%TF.FilePolarity,Negative*%
%FSLAX46Y46*%
G04 Gerber Fmt 4.6, Leading zero omitted, Abs format (unit mm)*
G04 Created by KiCad (PCBNEW (5.1.9)-1) date 2021-08-24 15:28:57*
%MOMM*%
%LPD*%
G01*
G04 APERTURE LIST*
%ADD10C,1.752600*%
%ADD11R,1.752600X1.752600*%
%ADD12C,3.987800*%
%ADD13C,1.750000*%
%ADD14R,1.600000X1.600000*%
%ADD15C,1.600000*%
G04 APERTURE END LIST*
D10*
%TO.C,PM1*%
X119538750Y-24130000D03*
X104298750Y-52070000D03*
X119538750Y-26670000D03*
X119538750Y-29210000D03*
X119538750Y-31750000D03*
X119538750Y-34290000D03*
X119538750Y-36830000D03*
X119538750Y-39370000D03*
X119538750Y-41910000D03*
X119538750Y-44450000D03*
X119538750Y-46990000D03*
X119538750Y-49530000D03*
X119538750Y-52070000D03*
X104298750Y-49530000D03*
X104298750Y-46990000D03*
X104298750Y-44450000D03*
X104298750Y-41910000D03*
X104298750Y-39370000D03*
X104298750Y-36830000D03*
X104298750Y-34290000D03*
X104298750Y-31750000D03*
X104298750Y-29210000D03*
X104298750Y-26670000D03*
D11*
X104298750Y-24130000D03*
%TD*%
D12*
%TO.C,MX33*%
X178593900Y-89296950D03*
D13*
X173513900Y-89296950D03*
X183673900Y-89296950D03*
%TD*%
D12*
%TO.C,MX32*%
X150018876Y-89296950D03*
D13*
X144938876Y-89296950D03*
X155098876Y-89296950D03*
%TD*%
D12*
%TO.C,MX31*%
X121443854Y-91678200D03*
D13*
X116363854Y-91678200D03*
X126523854Y-91678200D03*
%TD*%
D12*
%TO.C,MX30*%
X102393838Y-91678200D03*
D13*
X97313838Y-91678200D03*
X107473838Y-91678200D03*
%TD*%
D12*
%TO.C,MX29*%
X73818816Y-89296950D03*
D13*
X68738816Y-89296950D03*
X78898816Y-89296950D03*
%TD*%
D12*
%TO.C,MX28*%
X45243792Y-89296950D03*
D13*
X40163792Y-89296950D03*
X50323792Y-89296950D03*
%TD*%
D12*
%TO.C,MX27*%
X190500160Y-70246934D03*
D13*
X185420160Y-70246934D03*
X195580160Y-70246934D03*
%TD*%
D12*
%TO.C,MX26*%
X171450144Y-70246934D03*
D13*
X166370144Y-70246934D03*
X176530144Y-70246934D03*
%TD*%
D12*
%TO.C,MX25*%
X152400128Y-70246934D03*
D13*
X147320128Y-70246934D03*
X157480128Y-70246934D03*
%TD*%
D12*
%TO.C,MX24*%
X133350112Y-70246934D03*
D13*
X128270112Y-70246934D03*
X138430112Y-70246934D03*
%TD*%
D12*
%TO.C,MX23*%
X111918846Y-72628184D03*
D13*
X106838846Y-72628184D03*
X116998846Y-72628184D03*
%TD*%
D12*
%TO.C,MX22*%
X90487580Y-70246934D03*
D13*
X85407580Y-70246934D03*
X95567580Y-70246934D03*
%TD*%
D12*
%TO.C,MX21*%
X71437564Y-70246934D03*
D13*
X66357564Y-70246934D03*
X76517564Y-70246934D03*
%TD*%
D12*
%TO.C,MX20*%
X52387548Y-70246934D03*
D13*
X47307548Y-70246934D03*
X57467548Y-70246934D03*
%TD*%
D12*
%TO.C,MX19*%
X33337532Y-70246934D03*
D13*
X28257532Y-70246934D03*
X38417532Y-70246934D03*
%TD*%
D12*
%TO.C,MX18*%
X190500160Y-51196918D03*
D13*
X185420160Y-51196918D03*
X195580160Y-51196918D03*
%TD*%
D12*
%TO.C,MX17*%
X171450144Y-51196918D03*
D13*
X166370144Y-51196918D03*
X176530144Y-51196918D03*
%TD*%
D12*
%TO.C,MX16*%
X152400128Y-51196918D03*
D13*
X147320128Y-51196918D03*
X157480128Y-51196918D03*
%TD*%
D12*
%TO.C,MX15*%
X133350112Y-51196918D03*
D13*
X128270112Y-51196918D03*
X138430112Y-51196918D03*
%TD*%
D12*
%TO.C,MX14*%
X111918846Y-53578168D03*
D13*
X106838846Y-53578168D03*
X116998846Y-53578168D03*
%TD*%
D12*
%TO.C,MX13*%
X90487580Y-51196918D03*
D13*
X85407580Y-51196918D03*
X95567580Y-51196918D03*
%TD*%
D12*
%TO.C,MX12*%
X71437564Y-51196918D03*
D13*
X66357564Y-51196918D03*
X76517564Y-51196918D03*
%TD*%
D12*
%TO.C,MX11*%
X52387548Y-51196918D03*
D13*
X47307548Y-51196918D03*
X57467548Y-51196918D03*
%TD*%
D12*
%TO.C,MX10*%
X33337532Y-51196918D03*
D13*
X28257532Y-51196918D03*
X38417532Y-51196918D03*
%TD*%
D12*
%TO.C,MX9*%
X190500160Y-32146902D03*
D13*
X185420160Y-32146902D03*
X195580160Y-32146902D03*
%TD*%
D12*
%TO.C,MX8*%
X171450144Y-32146902D03*
D13*
X166370144Y-32146902D03*
X176530144Y-32146902D03*
%TD*%
D12*
%TO.C,MX7*%
X152400128Y-32146902D03*
D13*
X147320128Y-32146902D03*
X157480128Y-32146902D03*
%TD*%
D12*
%TO.C,MX6*%
X133350112Y-32146902D03*
D13*
X128270112Y-32146902D03*
X138430112Y-32146902D03*
%TD*%
D12*
%TO.C,MX5*%
X111918846Y-34528152D03*
D13*
X106838846Y-34528152D03*
X116998846Y-34528152D03*
%TD*%
D12*
%TO.C,MX4*%
X90487580Y-32146902D03*
D13*
X85407580Y-32146902D03*
X95567580Y-32146902D03*
%TD*%
D12*
%TO.C,MX3*%
X71437564Y-32146902D03*
D13*
X66357564Y-32146902D03*
X76517564Y-32146902D03*
%TD*%
D12*
%TO.C,MX2*%
X52387548Y-32146902D03*
D13*
X47307548Y-32146902D03*
X57467548Y-32146902D03*
%TD*%
D12*
%TO.C,MX1*%
X33337532Y-32146902D03*
D13*
X28257532Y-32146902D03*
X38417532Y-32146902D03*
%TD*%
D14*
%TO.C,D33*%
X170259518Y-92006324D03*
D15*
X170259518Y-84206324D03*
%TD*%
D14*
%TO.C,D32*%
X141684494Y-92006324D03*
D15*
X141684494Y-84206324D03*
%TD*%
D14*
%TO.C,D31*%
X132159375Y-94387500D03*
D15*
X132159375Y-86587500D03*
%TD*%
D14*
%TO.C,D30*%
X91678206Y-94387500D03*
D15*
X91678206Y-86587500D03*
%TD*%
D14*
%TO.C,D29*%
X82153125Y-92006250D03*
D15*
X82153125Y-84206250D03*
%TD*%
D14*
%TO.C,D28*%
X53578125Y-92006250D03*
D15*
X53578125Y-84206250D03*
%TD*%
D14*
%TO.C,D27*%
X180975000Y-72956250D03*
D15*
X180975000Y-65156250D03*
%TD*%
D14*
%TO.C,D26*%
X161925000Y-72956308D03*
D15*
X161925000Y-65156308D03*
%TD*%
D14*
%TO.C,D25*%
X144065625Y-72956250D03*
D15*
X144065625Y-65156250D03*
%TD*%
D14*
%TO.C,D24*%
X141684375Y-72956250D03*
D15*
X141684375Y-65156250D03*
%TD*%
D14*
%TO.C,D23*%
X82153125Y-67537500D03*
D15*
X82153125Y-75337500D03*
%TD*%
D14*
%TO.C,D22*%
X79771875Y-72956250D03*
D15*
X79771875Y-65156250D03*
%TD*%
D14*
%TO.C,D21*%
X61912556Y-72956308D03*
D15*
X61912556Y-65156308D03*
%TD*%
D14*
%TO.C,D20*%
X42862540Y-72956308D03*
D15*
X42862540Y-65156308D03*
%TD*%
D14*
%TO.C,D19*%
X25598463Y-72956308D03*
D15*
X25598463Y-65156308D03*
%TD*%
D14*
%TO.C,D18*%
X180975000Y-53906250D03*
D15*
X180975000Y-46106250D03*
%TD*%
D14*
%TO.C,D17*%
X161925000Y-53906250D03*
D15*
X161925000Y-46106250D03*
%TD*%
D14*
%TO.C,D16*%
X144065625Y-53906250D03*
D15*
X144065625Y-46106250D03*
%TD*%
D14*
%TO.C,D15*%
X141684375Y-53906250D03*
D15*
X141684375Y-46106250D03*
%TD*%
D14*
%TO.C,D14*%
X82153125Y-48487500D03*
D15*
X82153125Y-56287500D03*
%TD*%
D14*
%TO.C,D13*%
X79771875Y-53906250D03*
D15*
X79771875Y-46106250D03*
%TD*%
D14*
%TO.C,D12*%
X61912556Y-53906292D03*
D15*
X61912556Y-46106292D03*
%TD*%
D14*
%TO.C,D11*%
X42862540Y-53906292D03*
D15*
X42862540Y-46106292D03*
%TD*%
D14*
%TO.C,D10*%
X25598463Y-53906292D03*
D15*
X25598463Y-46106292D03*
%TD*%
D14*
%TO.C,D9*%
X180975000Y-34856250D03*
D15*
X180975000Y-27056250D03*
%TD*%
D14*
%TO.C,D8*%
X161925000Y-34856276D03*
D15*
X161925000Y-27056276D03*
%TD*%
D14*
%TO.C,D7*%
X144065625Y-34856276D03*
D15*
X144065625Y-27056276D03*
%TD*%
D14*
%TO.C,D6*%
X141684375Y-34856250D03*
D15*
X141684375Y-27056250D03*
%TD*%
D14*
%TO.C,D5*%
X82153125Y-29437500D03*
D15*
X82153125Y-37237500D03*
%TD*%
D14*
%TO.C,D4*%
X79771875Y-34856250D03*
D15*
X79771875Y-27056250D03*
%TD*%
D14*
%TO.C,D3*%
X61912556Y-34856276D03*
D15*
X61912556Y-27056276D03*
%TD*%
D14*
%TO.C,D2*%
X42862540Y-34856276D03*
D15*
X42862540Y-27056276D03*
%TD*%
D14*
%TO.C,D1*%
X25598463Y-34856276D03*
D15*
X25598463Y-27056276D03*
%TD*%
M02*
