%TF.GenerationSoftware,KiCad,Pcbnew,(5.1.9)-1*%
%TF.CreationDate,2021-08-24T15:28:57-07:00*%
%TF.ProjectId,DropDN - redesign2,44726f70-444e-4202-9d20-726564657369,rev?*%
%TF.SameCoordinates,Original*%
%TF.FileFunction,Profile,NP*%
%FSLAX46Y46*%
G04 Gerber Fmt 4.6, Leading zero omitted, Abs format (unit mm)*
G04 Created by KiCad (PCBNEW (5.1.9)-1) date 2021-08-24 15:28:57*
%MOMM*%
%LPD*%
G01*
G04 APERTURE LIST*
%TA.AperFunction,Profile*%
%ADD10C,0.100000*%
%TD*%
G04 APERTURE END LIST*
D10*
X23812520Y-78581316D02*
X23812520Y-23812520D01*
X25003146Y-79771942D02*
G75*
G02*
X23812520Y-78581316I0J1190626D01*
G01*
X33337528Y-79771942D02*
X25003146Y-79771942D01*
X33337528Y-97631332D02*
X33337528Y-79771942D01*
X34528154Y-98821958D02*
G75*
G02*
X33337528Y-97631332I0J1190626D01*
G01*
X189309534Y-98821958D02*
X34528154Y-98821958D01*
X190500160Y-97631332D02*
G75*
G02*
X189309534Y-98821958I-1190626J0D01*
G01*
X190500160Y-79771942D02*
X190500160Y-97631332D01*
X198834542Y-79771942D02*
X190500160Y-79771942D01*
X200025168Y-78581316D02*
G75*
G02*
X198834542Y-79771942I-1190626J0D01*
G01*
X200025168Y-23812520D02*
X200025168Y-78581316D01*
X198834542Y-22621894D02*
G75*
G02*
X200025168Y-23812520I0J-1190626D01*
G01*
X120848539Y-22621894D02*
X198834542Y-22621894D01*
X120848539Y-21431268D02*
X120848539Y-22621894D01*
X104179775Y-20240642D02*
X119657913Y-20240642D01*
X119657913Y-20240642D02*
G75*
G02*
X120848539Y-21431268I0J-1190626D01*
G01*
X102989149Y-21431268D02*
X102989149Y-22621894D01*
X102989149Y-21431268D02*
G75*
G02*
X104179775Y-20240642I1190626J0D01*
G01*
X25003146Y-22621894D02*
X102989149Y-22621894D01*
X23812520Y-23812520D02*
G75*
G02*
X25003146Y-22621894I1190626J0D01*
G01*
M02*
