M48
; DRILL file {KiCad (5.1.9)-1} date 08/24/21 15:28:59
; FORMAT={-:-/ absolute / inch / decimal}
; #@! TF.CreationDate,2021-08-24T15:28:59-07:00
; #@! TF.GenerationSoftware,Kicad,Pcbnew,(5.1.9)-1
; #@! TF.FileFunction,Plated,1,2,PTH
FMAT,2
INCH
T1C0.0157
T2C0.0394
T3C0.0430
T4C0.0579
%
G90
G05
T1
X1.689Y-1.6378
X4.2252Y-2.2184
X4.2277Y-2.1792
X4.2277Y-2.2577
X4.2856Y-2.2648
X4.4021Y-3.716
X4.437Y-1.7323
X4.725Y-2.2648
X4.7525Y-2.9838
X4.7638Y-1.4008
X4.7643Y-1.3438
X4.806Y-2.1901
X5.1Y-2.2661
X5.85Y-2.2484
X6.6Y-2.2307
X7.35Y-2.2012
T2
X1.0078Y-1.0652
X1.0078Y-1.3723
X1.0078Y-1.8152
X1.0078Y-2.1223
X1.0078Y-2.5652
X1.0078Y-2.8723
X1.6875Y-1.0652
X1.6875Y-1.3723
X1.6875Y-1.8152
X1.6875Y-2.1223
X1.6875Y-2.5652
X1.6875Y-2.8723
X2.1094Y-3.3152
X2.1094Y-3.6223
X2.4375Y-1.0652
X2.4375Y-1.3723
X2.4375Y-1.8152
X2.4375Y-2.1223
X2.4375Y-2.5652
X2.4375Y-2.8723
X3.1406Y-1.0652
X3.1406Y-1.3723
X3.1406Y-1.8152
X3.1406Y-2.1223
X3.1406Y-2.5652
X3.1406Y-2.8723
X3.2344Y-1.159
X3.2344Y-1.466
X3.2344Y-1.909
X3.2344Y-2.216
X3.2344Y-2.659
X3.2344Y-2.966
X3.2344Y-3.3152
X3.2344Y-3.6223
X3.6094Y-3.409
X3.6094Y-3.716
X5.2031Y-3.409
X5.2031Y-3.716
X5.5781Y-1.0652
X5.5781Y-1.3723
X5.5781Y-1.8152
X5.5781Y-2.1223
X5.5781Y-2.5652
X5.5781Y-2.8723
X5.5781Y-3.3152
X5.5781Y-3.6223
X5.6719Y-1.0652
X5.6719Y-1.3723
X5.6719Y-1.8152
X5.6719Y-2.1223
X5.6719Y-2.5652
X5.6719Y-2.8723
X6.375Y-1.0652
X6.375Y-1.3723
X6.375Y-1.8152
X6.375Y-2.1223
X6.375Y-2.5652
X6.375Y-2.8723
X6.7031Y-3.3152
X6.7031Y-3.6223
X7.125Y-1.0652
X7.125Y-1.3723
X7.125Y-1.8152
X7.125Y-2.1223
X7.125Y-2.5652
X7.125Y-2.8723
T3
X4.1063Y-0.95
X4.1063Y-1.05
X4.1063Y-1.15
X4.1063Y-1.25
X4.1063Y-1.35
X4.1063Y-1.45
X4.1063Y-1.55
X4.1063Y-1.65
X4.1063Y-1.75
X4.1063Y-1.85
X4.1063Y-1.95
X4.1063Y-2.05
X4.7062Y-0.95
X4.7062Y-1.05
X4.7062Y-1.15
X4.7062Y-1.25
X4.7062Y-1.35
X4.7062Y-1.45
X4.7062Y-1.55
X4.7062Y-1.65
X4.7062Y-1.75
X4.7062Y-1.85
X4.7062Y-1.95
X4.7062Y-2.05
T4
X1.1625Y-1.1656
X1.1625Y-1.9156
X1.1625Y-2.6656
X1.4125Y-1.0656
X1.4125Y-1.8156
X1.4125Y-2.5656
X1.6313Y-3.4156
X1.8813Y-3.3156
X1.9125Y-1.1656
X1.9125Y-1.9156
X1.9125Y-2.6656
X2.1625Y-1.0656
X2.1625Y-1.8156
X2.1625Y-2.5656
X2.6625Y-1.1656
X2.6625Y-1.9156
X2.6625Y-2.6656
X2.7563Y-3.4156
X2.9125Y-1.0656
X2.9125Y-1.8156
X2.9125Y-2.5656
X3.0063Y-3.3156
X3.4125Y-1.1656
X3.4125Y-1.9156
X3.4125Y-2.6656
X3.6625Y-1.0656
X3.6625Y-1.8156
X3.6625Y-2.5656
X3.8813Y-3.5094
X4.1313Y-3.4094
X4.2563Y-1.2594
X4.2563Y-2.0094
X4.2563Y-2.7594
X4.5063Y-1.1594
X4.5063Y-1.9094
X4.5063Y-2.6594
X4.6313Y-3.5094
X4.8813Y-3.4094
X5.1Y-1.1656
X5.1Y-1.9156
X5.1Y-2.6656
X5.35Y-1.0656
X5.35Y-1.8156
X5.35Y-2.5656
X5.7563Y-3.4156
X5.85Y-1.1656
X5.85Y-1.9156
X5.85Y-2.6656
X6.0063Y-3.3156
X6.1Y-1.0656
X6.1Y-1.8156
X6.1Y-2.5656
X6.6Y-1.1656
X6.6Y-1.9156
X6.6Y-2.6656
X6.85Y-1.0656
X6.85Y-1.8156
X6.85Y-2.5656
X6.8813Y-3.4156
X7.1313Y-3.3156
X7.35Y-1.1656
X7.35Y-1.9156
X7.35Y-2.6656
X7.6Y-1.0656
X7.6Y-1.8156
X7.6Y-2.5656
T0
M30
