%TF.GenerationSoftware,KiCad,Pcbnew,(5.1.9)-1*%
%TF.CreationDate,2021-08-24T15:28:57-07:00*%
%TF.ProjectId,DropDN - redesign2,44726f70-444e-4202-9d20-726564657369,rev?*%
%TF.SameCoordinates,Original*%
%TF.FileFunction,Paste,Bot*%
%TF.FilePolarity,Positive*%
%FSLAX46Y46*%
G04 Gerber Fmt 4.6, Leading zero omitted, Abs format (unit mm)*
G04 Created by KiCad (PCBNEW (5.1.9)-1) date 2021-08-24 15:28:57*
%MOMM*%
%LPD*%
G01*
G04 APERTURE LIST*
%ADD10R,1.800000X1.100000*%
%ADD11R,1.200000X1.600000*%
G04 APERTURE END LIST*
D10*
%TO.C,RESET1*%
X145975000Y-43521875D03*
X139775000Y-39821875D03*
X145975000Y-39821875D03*
X139775000Y-43521875D03*
%TD*%
D11*
%TO.C,D33*%
X170259518Y-89506324D03*
X170259518Y-86706324D03*
%TD*%
%TO.C,D32*%
X141684494Y-89506324D03*
X141684494Y-86706324D03*
%TD*%
%TO.C,D31*%
X132159375Y-91887500D03*
X132159375Y-89087500D03*
%TD*%
%TO.C,D30*%
X91678206Y-91887500D03*
X91678206Y-89087500D03*
%TD*%
%TO.C,D29*%
X82153125Y-89506250D03*
X82153125Y-86706250D03*
%TD*%
%TO.C,D28*%
X53578125Y-89506250D03*
X53578125Y-86706250D03*
%TD*%
%TO.C,D27*%
X180975000Y-70456250D03*
X180975000Y-67656250D03*
%TD*%
%TO.C,D26*%
X161925000Y-70456308D03*
X161925000Y-67656308D03*
%TD*%
%TO.C,D25*%
X144065625Y-70456250D03*
X144065625Y-67656250D03*
%TD*%
%TO.C,D24*%
X141684375Y-70456250D03*
X141684375Y-67656250D03*
%TD*%
%TO.C,D23*%
X82153125Y-70037500D03*
X82153125Y-72837500D03*
%TD*%
%TO.C,D22*%
X79771875Y-70456250D03*
X79771875Y-67656250D03*
%TD*%
%TO.C,D21*%
X61912556Y-70456308D03*
X61912556Y-67656308D03*
%TD*%
%TO.C,D20*%
X42862540Y-70456308D03*
X42862540Y-67656308D03*
%TD*%
%TO.C,D19*%
X25598463Y-70456308D03*
X25598463Y-67656308D03*
%TD*%
%TO.C,D18*%
X180975000Y-51406250D03*
X180975000Y-48606250D03*
%TD*%
%TO.C,D17*%
X161925000Y-51406250D03*
X161925000Y-48606250D03*
%TD*%
%TO.C,D16*%
X144065625Y-51406250D03*
X144065625Y-48606250D03*
%TD*%
%TO.C,D15*%
X141684375Y-51406250D03*
X141684375Y-48606250D03*
%TD*%
%TO.C,D14*%
X82153125Y-50987500D03*
X82153125Y-53787500D03*
%TD*%
%TO.C,D13*%
X79771875Y-51406250D03*
X79771875Y-48606250D03*
%TD*%
%TO.C,D12*%
X61912556Y-51406292D03*
X61912556Y-48606292D03*
%TD*%
%TO.C,D11*%
X42862540Y-51406292D03*
X42862540Y-48606292D03*
%TD*%
%TO.C,D10*%
X25598463Y-51406292D03*
X25598463Y-48606292D03*
%TD*%
%TO.C,D9*%
X180975000Y-32356250D03*
X180975000Y-29556250D03*
%TD*%
%TO.C,D8*%
X161925000Y-32356276D03*
X161925000Y-29556276D03*
%TD*%
%TO.C,D7*%
X144065625Y-32356276D03*
X144065625Y-29556276D03*
%TD*%
%TO.C,D6*%
X141684375Y-32356250D03*
X141684375Y-29556250D03*
%TD*%
%TO.C,D5*%
X82153125Y-31937500D03*
X82153125Y-34737500D03*
%TD*%
%TO.C,D4*%
X79771875Y-32356250D03*
X79771875Y-29556250D03*
%TD*%
%TO.C,D3*%
X61912556Y-32356276D03*
X61912556Y-29556276D03*
%TD*%
%TO.C,D2*%
X42862540Y-32356276D03*
X42862540Y-29556276D03*
%TD*%
%TO.C,D1*%
X25598463Y-32356276D03*
X25598463Y-29556276D03*
%TD*%
M02*
