<?xml version="1.0" standalone="no"?>
 <!DOCTYPE svg PUBLIC "-//W3C//DTD SVG 1.1//EN" 
 "http://www.w3.org/Graphics/SVG/1.1/DTD/svg11.dtd"> 
<svg
  xmlns:svg="http://www.w3.org/2000/svg"
  xmlns="http://www.w3.org/2000/svg"
  xmlns:xlink="http://www.w3.org/1999/xlink"
  version="1.1"
  width="18.821400cm" height="9.296400cm" viewBox="0 0 74100 36600">
<title>SVG Picture created as DropDN - redesign plate making-brd.svg date 2021/06/01 15:58:02 </title>
  <desc>Picture generated by PCBNEW </desc>
<g style="fill:#000000; fill-opacity:1;stroke:#000000; stroke-opacity:1;
stroke-linecap:round; stroke-linejoin:round;"
 transform="translate(0 0) scale(1 1)">
</g>
<g style="fill:#000000; fill-opacity:0.0; 
stroke:#000000; stroke-width:-0.000393701; stroke-opacity:1; 
stroke-linecap:round; stroke-linejoin:round;">
</g>
<g style="fill:#000000; fill-opacity:0.0; 
stroke:#000000; stroke-width:59.0551; stroke-opacity:1; 
stroke-linecap:round; stroke-linejoin:round;">
<circle cx="53222.9" cy="10097.8" r="590.551" /> 
<g >
</g>
<g >
</g>
<g >
</g>
</g>
<g style="fill:#000000; fill-opacity:0.0; 
stroke:#000000; stroke-width:59.0551; stroke-opacity:1; 
stroke-linecap:round; stroke-linejoin:round;">
</g>
<g style="fill:#000000; fill-opacity:0.0; 
stroke:#000000; stroke-width:39.3701; stroke-opacity:1; 
stroke-linecap:round; stroke-linejoin:round;">
<circle cx="8457.19" cy="4941.56" r="393.701" /> 
<circle cx="20644.7" cy="4941.56" r="393.701" /> 
<circle cx="53457.2" cy="4941.56" r="393.701" /> 
<circle cx="65644.7" cy="4941.56" r="393.701" /> 
<circle cx="72441.6" cy="34941.6" r="590.551" /> 
<path d="M55097 18300
L55097 19
" />
<path d="M74082.2 1660.31 A1640.63 1640.63 0.0 0 0 72441.6 19.6854" />
<circle cx="1660.31" cy="1660.31" r="590.551" /> 
<path d="M74082 34941
L74082 1660
" />
<path d="M55097 18300
L64004 18300
" />
<path d="M64004 18300
L64004 19
" />
<path d="M19.6854 34941.6 A1640.63 1640.63 0.0 0 0 1660.31 36582.2" />
<path d="M19 1660
L19 34941
" />
<circle cx="1660.31" cy="34941.6" r="590.551" /> 
<circle cx="37051" cy="34941.6" r="590.551" /> 
<path d="M1660 36582
L72441 36582
" />
<circle cx="37051" cy="1660.31" r="590.551" /> 
<path d="M55097 19
L1660 19
" />
<circle cx="72441.6" cy="1660.31" r="590.551" /> 
<path d="M72441.6 36582.2 A1640.63 1640.63 0.0 0 0 74082.2 34941.6" />
<path d="M1660.31 19.6854 A1640.63 1640.63 0.0 0 0 19.6854 1660.31" />
<path d="M72441 19
L64004 19
" />
<g >
</g>
<g >
</g>
<g >
</g>
</g> 
</svg>
