<?xml version="1.0" standalone="no"?>
 <!DOCTYPE svg PUBLIC "-//W3C//DTD SVG 1.1//EN" 
 "http://www.w3.org/Graphics/SVG/1.1/DTD/svg11.dtd"> 
<svg
  xmlns:svg="http://www.w3.org/2000/svg"
  xmlns="http://www.w3.org/2000/svg"
  xmlns:xlink="http://www.w3.org/1999/xlink"
  version="1.1"
  width="18.821400cm" height="9.296400cm" viewBox="0 0 74100 36600">
<title>SVG Picture created as DropDN - redesign plate making-brd.svg date 2021/07/21 12:36:48 </title>
  <desc>Picture generated by PCBNEW </desc>
<g style="fill:#000000; fill-opacity:1;stroke:#000000; stroke-opacity:1;
stroke-linecap:round; stroke-linejoin:round;"
 transform="translate(0 0) scale(1 1)">
</g>
<g style="fill:#000000; fill-opacity:0.0; 
stroke:#000000; stroke-width:-0.000393701; stroke-opacity:1; 
stroke-linecap:round; stroke-linejoin:round;">
</g>
<g style="fill:#000000; fill-opacity:0.0; 
stroke:#000000; stroke-width:39.3701; stroke-opacity:1; 
stroke-linecap:round; stroke-linejoin:round;">
<path d="M37641.5 1660.38 A590.551 590.551 0.0 0 0 36460.4 1660.38" />
<path d="M2250.86 1660.38 A590.551 590.551 0.0 1 0 1660.31 2250.93" />
<path d="M1660.31 34351.1 A590.551 590.551 0.0 1 0 2250.86 34941.7" />
<path d="M36460.4 34941.7 A590.551 590.551 0.0 0 0 37641.5 34941.7" />
<path d="M71851.1 34941.7 A590.551 590.551 0.0 1 0 72441.6 34351.1" />
<path d="M72441.6 2250.93 A590.551 590.551 0.0 1 0 71851.1 1660.38" />
<path d="M71851 1660
L63999 1660
" />
<path d="M55102 1660
L55101 1003
" />
<path d="M2250 34941
L36460 34941
" />
<path d="M1660 2250
L1660 34351
" />
<path d="M36460 1660
L2250 1660
" />
<path d="M55102 1660
L37641 1660
" />
<path d="M72441 34351
L72441 2250
" />
<path d="M37641 34941
L71851 34941
" />
<path d="M72441 19
L64983 19
" />
<path d="M55101.6 1003.94 A984.252 984.252 0.0 0 0 54117.4 19.6854" />
<path d="M74082.2 1660.38 A1640.63 1640.63 0.0 0 0 72441.6 19.7516" />
<path d="M19.6854 34941.7 A1640.63 1640.63 0.0 0 0 1660.31 36582.3" />
<path d="M1660.31 19.7516 A1640.63 1640.63 0.0 0 0 19.6854 1660.38" />
<path d="M54117 19
L1660 19
" />
<path d="M64983.5 19.6854 A984.252 984.252 0.0 0 0 63999.3 1003.94" />
<path d="M72441.6 36582.3 A1640.63 1640.63 0.0 0 0 74082.2 34941.7" />
<path d="M74082 34941
L74082 1660
" />
<path d="M19 1660
L19 34941
" />
<path d="M1660 36582
L72441 36582
" />
<path d="M63999 1662
L63999 1003
" />
<g >
</g>
<g >
</g>
</g> 
</svg>
