<?xml version="1.0" standalone="no"?>
 <!DOCTYPE svg PUBLIC "-//W3C//DTD SVG 1.1//EN" 
 "http://www.w3.org/Graphics/SVG/1.1/DTD/svg11.dtd"> 
<svg
  xmlns:svg="http://www.w3.org/2000/svg"
  xmlns="http://www.w3.org/2000/svg"
  xmlns:xlink="http://www.w3.org/1999/xlink"
  version="1.1"
  width="17.988280cm" height="8.463280cm" viewBox="0 0 70820 33320">
<title>SVG Picture created as DropDN - redesign plate making-brd.svg date 2021/06/01 14:53:32 </title>
  <desc>Picture generated by PCBNEW </desc>
<g style="fill:#000000; fill-opacity:1;stroke:#000000; stroke-opacity:1;
stroke-linecap:round; stroke-linejoin:round;"
 transform="translate(0 0) scale(1 1)">
</g>
<g style="fill:#000000; fill-opacity:0.0; 
stroke:#000000; stroke-width:-0.000393701; stroke-opacity:1; 
stroke-linecap:round; stroke-linejoin:round;">
</g>
<g style="fill:#000000; fill-opacity:0.0; 
stroke:#000000; stroke-width:47.2441; stroke-opacity:1; 
stroke-linecap:round; stroke-linejoin:round;">
<path d="M60666 10154
L55154 10154
" />
<path d="M55154 10154
L55154 15666
" />
<path d="M55154 15666
L60666 15666
" />
<path d="M60666 15666
L60666 10154
" />
<path d="M23166 10154
L17654 10154
" />
<path d="M17654 10154
L17654 15666
" />
<path d="M17654 15666
L23166 15666
" />
<path d="M23166 15666
L23166 10154
" />
<path d="M12853 25154
L7341 25154
" />
<path d="M7341 25154
L7341 30666
" />
<path d="M7341 30666
L12853 30666
" />
<path d="M12853 25154
L12853 30666
" />
<path d="M30666 10154
L25154 10154
" />
<path d="M25154 10154
L25154 15666
" />
<path d="M25154 15666
L30666 15666
" />
<path d="M30666 15666
L30666 10154
" />
<path d="M45666 10154
L40154 10154
" />
<path d="M40154 10154
L40154 15666
" />
<path d="M40154 15666
L45666 15666
" />
<path d="M45666 15666
L45666 10154
" />
<path d="M53166 10154
L47654 10154
" />
<path d="M47654 10154
L47654 15666
" />
<path d="M47654 15666
L53166 15666
" />
<path d="M53166 15666
L53166 10154
" />
<path d="M30666 17654
L25154 17654
" />
<path d="M25154 17654
L25154 23166
" />
<path d="M25154 23166
L30666 23166
" />
<path d="M30666 23166
L30666 17654
" />
<path d="M53166 17654
L47654 17654
" />
<path d="M47654 17654
L47654 23166
" />
<path d="M47654 23166
L53166 23166
" />
<path d="M53166 23166
L53166 17654
" />
<path d="M68166 2654
L62654 2654
" />
<path d="M62654 2654
L62654 8166
" />
<path d="M62654 8166
L68166 8166
" />
<path d="M68166 8166
L68166 2654
" />
<path d="M53166 2654
L47654 2654
" />
<path d="M47654 2654
L47654 8166
" />
<path d="M47654 8166
L53166 8166
" />
<path d="M53166 8166
L53166 2654
" />
<path d="M23166 2654
L17654 2654
" />
<path d="M17654 2654
L17654 8166
" />
<path d="M17654 8166
L23166 8166
" />
<path d="M23166 8166
L23166 2654
" />
<path d="M38166 2654
L32654 2654
" />
<path d="M32654 2654
L32654 8166
" />
<path d="M32654 8166
L38166 8166
" />
<path d="M38166 8166
L38166 2654
" />
<path d="M8166 2654
L2654 2654
" />
<path d="M2654 2654
L2654 8166
" />
<path d="M2654 8166
L8166 8166
" />
<path d="M8166 8166
L8166 2654
" />
<path d="M60666 17654
L55154 17654
" />
<path d="M55154 17654
L55154 23166
" />
<path d="M55154 23166
L60666 23166
" />
<path d="M60666 23166
L60666 17654
" />
<path d="M68166 17654
L62654 17654
" />
<path d="M62654 17654
L62654 23166
" />
<path d="M62654 23166
L68166 23166
" />
<path d="M68166 23166
L68166 17654
" />
<path d="M8166 10154
L2654 10154
" />
<path d="M2654 10154
L2654 15666
" />
<path d="M2654 15666
L8166 15666
" />
<path d="M8166 15666
L8166 10154
" />
<path d="M23166 17654
L17654 17654
" />
<path d="M17654 17654
L17654 23166
" />
<path d="M17654 23166
L23166 23166
" />
<path d="M23166 23166
L23166 17654
" />
<path d="M30666 2654
L25154 2654
" />
<path d="M25154 2654
L25154 8166
" />
<path d="M25154 8166
L30666 8166
" />
<path d="M30666 8166
L30666 2654
" />
<path d="M15666 17654
L10154 17654
" />
<path d="M10154 17654
L10154 23166
" />
<path d="M10154 23166
L15666 23166
" />
<path d="M15666 23166
L15666 17654
" />
<path d="M8166 17654
L2654 17654
" />
<path d="M2654 17654
L2654 23166
" />
<path d="M2654 23166
L8166 23166
" />
<path d="M8166 23166
L8166 17654
" />
<path d="M60666 2654
L55154 2654
" />
<path d="M55154 2654
L55154 8166
" />
<path d="M55154 8166
L60666 8166
" />
<path d="M60666 8166
L60666 2654
" />
<path d="M34416 25154
L28904 25154
" />
<path d="M28904 25154
L28904 30666
" />
<path d="M28904 30666
L34416 30666
" />
<path d="M34416 30666
L34416 25154
" />
<path d="M52228 25154
L52228 30666
" />
<path d="M52228 30666
L46716 30666
" />
<path d="M46716 30666
L46716 25154
" />
<path d="M46716 25154
L52228 25154
" />
<path d="M15666 2654
L10154 2654
" />
<path d="M10154 2654
L10154 8166
" />
<path d="M10154 8166
L15666 8166
" />
<path d="M15666 8166
L15666 2654
" />
<path d="M45666 2654
L40154 2654
" />
<path d="M40154 2654
L40154 8166
" />
<path d="M40154 8166
L45666 8166
" />
<path d="M45666 8166
L45666 2654
" />
<path d="M38166 17654
L32654 17654
" />
<path d="M32654 17654
L32654 23166
" />
<path d="M32654 23166
L38166 23166
" />
<path d="M38166 23166
L38166 17654
" />
<path d="M68166 10154
L62654 10154
" />
<path d="M62654 10154
L62654 15666
" />
<path d="M62654 15666
L68166 15666
" />
<path d="M68166 15666
L68166 10154
" />
<path d="M15666 10154
L10154 10154
" />
<path d="M10154 10154
L10154 15666
" />
<path d="M10154 15666
L15666 15666
" />
<path d="M15666 15666
L15666 10154
" />
<path d="M24103 25154
L24103 30666
" />
<path d="M24103 30666
L18591 30666
" />
<path d="M18591 30666
L18591 25154
" />
<path d="M18591 25154
L24103 25154
" />
<path d="M45666 17654
L40154 17654
" />
<path d="M40154 17654
L40154 23166
" />
<path d="M40154 23166
L45666 23166
" />
<path d="M45666 23166
L45666 17654
" />
<path d="M41916 25154
L36404 25154
" />
<path d="M36404 25154
L36404 30666
" />
<path d="M36404 30666
L41916 30666
" />
<path d="M41916 30666
L41916 25154
" />
<path d="M38166 10154
L32654 10154
" />
<path d="M32654 10154
L32654 15666
" />
<path d="M32654 15666
L38166 15666
" />
<path d="M38166 15666
L38166 10154
" />
<path d="M63478 25154
L57966 25154
" />
<path d="M57966 25154
L57966 30666
" />
<path d="M57966 30666
L63478 30666
" />
<path d="M63478 25154
L63478 30666
" />
<g >
</g>
<g >
</g>
<g >
</g>
<g >
</g>
<g >
</g>
<g >
</g>
<g >
</g>
<g >
</g>
<g >
</g>
<g >
</g>
<g >
</g>
<g >
</g>
<g >
</g>
<g >
</g>
<g >
</g>
<g >
</g>
<g >
</g>
<g >
</g>
<g >
</g>
<g >
</g>
<g >
</g>
<g >
</g>
<g >
</g>
<g >
</g>
<g >
</g>
<g >
</g>
<g >
</g>
<g >
</g>
<g >
</g>
<g >
</g>
<g >
</g>
<g >
</g>
<g >
</g>
<g >
</g>
<g >
</g>
<g >
</g>
<g >
</g>
</g>
<g style="fill:#000000; fill-opacity:0.0; 
stroke:#000000; stroke-width:47.2441; stroke-opacity:1; 
stroke-linecap:round; stroke-linejoin:round;">
</g>
<g style="fill:#000000; fill-opacity:0.0; 
stroke:#000000; stroke-width:39.3701; stroke-opacity:1; 
stroke-linecap:round; stroke-linejoin:round;">
<path d="M70801 31660.3 A1640.63 1640.63 0.0 0 0 69160.4 33301" />
<path d="M19.6854 1660.31 A1640.63 1640.63 0.0 0 0 1660.31 19.6854" />
<path d="M69160.4 19.6854 A1640.63 1640.63 0.0 0 0 70801 1660.31" />
<path d="M33769.7 19.6854 A1640.63 1640.63 0.0 0 0 37051 19.6854" />
<path d="M37051 33301 A1640.63 1640.63 0.0 0 0 33769.7 33301" />
<path d="M1660.31 33301 A1640.63 1640.63 0.0 0 0 19.6854 31660.3" />
<path d="M69160 19
L37050 19
" />
<path d="M19 1660
L19 31660
" />
<path d="M37050 33300
L69160 33300
" />
<path d="M1660 33300
L33769 33300
" />
<path d="M70800 31660
L70800 1660
" />
<path d="M33769 19
L1660 19
" />
<g >
</g>
<g >
</g>
<g >
</g>
<g >
</g>
<g >
</g>
<g >
</g>
<g >
</g>
<g >
</g>
<g >
</g>
<g >
</g>
<g >
</g>
<g >
</g>
<g >
</g>
<g >
</g>
<g >
</g>
<g >
</g>
<g >
</g>
<g >
</g>
<g >
</g>
<g >
</g>
<g >
</g>
<g >
</g>
<g >
</g>
<g >
</g>
<g >
</g>
<g >
</g>
<g >
</g>
<g >
</g>
<g >
</g>
<g >
</g>
<g >
</g>
<g >
</g>
<g >
</g>
<g >
</g>
<g >
</g>
<g >
</g>
<g >
</g>
</g> 
</svg>
