<?xml version="1.0" standalone="no"?>
 <!DOCTYPE svg PUBLIC "-//W3C//DTD SVG 1.1//EN" 
 "http://www.w3.org/Graphics/SVG/1.1/DTD/svg11.dtd"> 
<svg
  xmlns:svg="http://www.w3.org/2000/svg"
  xmlns="http://www.w3.org/2000/svg"
  xmlns:xlink="http://www.w3.org/1999/xlink"
  version="1.1"
  width="4.175760cm" height="4.056380cm" viewBox="0 0 16440 15970">
<title>SVG Picture created as DropDN - redesign plate making-brd.svg date 2021/07/20 10:53:05 </title>
  <desc>Picture generated by PCBNEW </desc>
<g style="fill:#000000; fill-opacity:1;stroke:#000000; stroke-opacity:1;
stroke-linecap:round; stroke-linejoin:round;"
 transform="translate(0 0) scale(1 1)">
</g>
<g style="fill:#000000; fill-opacity:0.0; 
stroke:#000000; stroke-width:-0.000393701; stroke-opacity:1; 
stroke-linecap:round; stroke-linejoin:round;">
</g>
<g style="fill:#000000; fill-opacity:0.0; 
stroke:#000000; stroke-width:39.3701; stroke-opacity:1; 
stroke-linecap:round; stroke-linejoin:round;">
<circle cx="2129.06" cy="2129.06" r="610.236" /> 
<circle cx="14316.6" cy="2129.06" r="610.236" /> 
<path d="M12910.3 15957.2 A234.375 234.375 0.0 0 0 13144.7 15722.8" />
<path d="M13144 15722
L13144 4238
" />
<path d="M3300 4238
L3300 15722
" />
<path d="M3300.94 15722.8 A234.375 234.375 0.0 0 0 3535.31 15957.2" />
<path d="M2129.06 19.6854 A2109.38 2109.38 0.0 0 0 2129.06 4238.44" />
<path d="M3535 15957
L12910 15957
" />
<path d="M13144 4238
L14316 4238
" />
<path d="M2129 19
L14316 19
" />
<path d="M2129 4238
L3300 4238
" />
<path d="M14316.6 4238.44 A2109.38 2109.38 0.0 0 0 14316.6 19.6854" />
<g >
</g>
<g >
</g>
</g> 
</svg>
