<?xml version="1.0" standalone="no"?>
 <!DOCTYPE svg PUBLIC "-//W3C//DTD SVG 1.1//EN" 
 "http://www.w3.org/Graphics/SVG/1.1/DTD/svg11.dtd"> 
<svg
  xmlns:svg="http://www.w3.org/2000/svg"
  xmlns="http://www.w3.org/2000/svg"
  xmlns:xlink="http://www.w3.org/1999/xlink"
  version="1.1"
  width="4.175760cm" height="4.653280cm" viewBox="0 0 16440 18320">
<title>SVG Picture created as DropDN - redesign plate making-brd.svg date 2021/06/01 15:59:45 </title>
  <desc>Picture generated by PCBNEW </desc>
<g style="fill:#000000; fill-opacity:1;stroke:#000000; stroke-opacity:1;
stroke-linecap:round; stroke-linejoin:round;"
 transform="translate(0 0) scale(1 1)">
</g>
<g style="fill:#000000; fill-opacity:0.0; 
stroke:#000000; stroke-width:-0.000393701; stroke-opacity:1; 
stroke-linecap:round; stroke-linejoin:round;">
<g >
</g>
<g >
</g>
</g>
<g style="fill:#000000; fill-opacity:0.0; 
stroke:#000000; stroke-width:-0.000393701; stroke-opacity:1; 
stroke-linecap:round; stroke-linejoin:round;">
</g>
<g style="fill:#000000; fill-opacity:0.0; 
stroke:#000000; stroke-width:39.3701; stroke-opacity:1; 
stroke-linecap:round; stroke-linejoin:round;">
<circle cx="14316.6" cy="4472.81" r="610.236" /> 
<circle cx="2129.06" cy="4472.81" r="610.236" /> 
<path d="M12910.3 18301 A234.375 234.375 0.0 0 0 13144.7 18066.6" />
<path d="M13144 18066
L13144 6582
" />
<path d="M3300 6582
L3300 18066
" />
<path d="M3300 2363
L3300 254
" />
<path d="M13144 2363
L14316 2363
" />
<path d="M13144 254
L13144 2363
" />
<path d="M3300.94 18066.6 A234.375 234.375 0.0 0 0 3535.31 18301" />
<path d="M3535 19
L12910 19
" />
<path d="M14316.6 6582.19 A2109.38 2109.38 0.0 0 0 14316.6 2363.44" />
<path d="M3535 18300
L12910 18300
" />
<path d="M2129 6582
L3300 6582
" />
<path d="M2129.06 2363.44 A2109.38 2109.38 0.0 0 0 2129.06 6582.19" />
<path d="M13144.7 254.061 A234.375 234.375 0.0 0 0 12910.3 19.6854" />
<path d="M3535.31 19.6854 A234.375 234.375 0.0 0 0 3300.94 254.061" />
<path d="M2129 2363
L3300 2363
" />
<path d="M13144 6582
L14316 6582
" />
<g >
</g>
<g >
</g>
</g> 
</svg>
