<?xml version="1.0" standalone="no"?>
 <!DOCTYPE svg PUBLIC "-//W3C//DTD SVG 1.1//EN" 
 "http://www.w3.org/Graphics/SVG/1.1/DTD/svg11.dtd"> 
<svg
  xmlns:svg="http://www.w3.org/2000/svg"
  xmlns="http://www.w3.org/2000/svg"
  xmlns:xlink="http://www.w3.org/1999/xlink"
  version="1.1"
  width="18.821400cm" height="9.296400cm" viewBox="0 0 74100 36600">
<title>SVG Picture created as DropDN - redesign plate making-brd.svg date 2021/07/20 11:49:08 </title>
  <desc>Picture generated by PCBNEW </desc>
<g style="fill:#000000; fill-opacity:1;stroke:#000000; stroke-opacity:1;
stroke-linecap:round; stroke-linejoin:round;"
 transform="translate(0 0) scale(1 1)">
</g>
<g style="fill:#000000; fill-opacity:0.0; 
stroke:#000000; stroke-width:-0.000393701; stroke-opacity:1; 
stroke-linecap:round; stroke-linejoin:round;">
</g>
<g style="fill:#000000; fill-opacity:0.0; 
stroke:#000000; stroke-width:39.3701; stroke-opacity:1; 
stroke-linecap:round; stroke-linejoin:round;">
<path d="M63998.7 2322.84 A984.252 984.252 0.0 0 0 64982.9 3307.09" />
<path d="M54116.8 3307.09 A984.252 984.252 0.0 0 0 55101 2322.84" />
<path d="M64982.9 19.6854 A984.252 984.252 0.0 0 0 63998.7 1003.94" />
<path d="M55101 1003.94 A984.252 984.252 0.0 0 0 54116.8 19.6854" />
<path d="M70800 33307
L3301 33305
" />
<path d="M72441.6 36586.6 A1640.63 1640.63 0.0 0 0 74082.2 34945.9" />
<path d="M54116 19
L1660 24
" />
<circle cx="72441.6" cy="34945.9" r="1033.46" /> 
<circle cx="37051" cy="1664.65" r="1033.46" /> 
<circle cx="1660.31" cy="1664.65" r="1033.46" /> 
<path d="M55101 2322
L55101 1003
" />
<path d="M64982 3307
L70800 3305
" />
<path d="M3301 33305
L3300 3305
" />
<path d="M74082 34945
L74082 1664
" />
<path d="M74082.2 1664.65 A1640.63 1640.63 0.0 0 0 72441.6 24.0205" />
<path d="M64982 19
L72441 24
" />
<path d="M19 1664
L19 34945
" />
<path d="M70800 3305
L70800 33307
" />
<circle cx="1660.31" cy="34945.9" r="1033.46" /> 
<path d="M3300 3305
L54116 3307
" />
<path d="M63998 2322
L63998 1003
" />
<path d="M1660 36586
L72441 36586
" />
<path d="M19.6854 34945.9 A1640.63 1640.63 0.0 0 0 1660.31 36586.6" />
<circle cx="37051" cy="34945.9" r="1033.46" /> 
<path d="M1660.31 24.0205 A1640.63 1640.63 0.0 0 0 19.6854 1664.65" />
<circle cx="72441.6" cy="1664.65" r="1033.46" /> 
<g >
</g>
<g >
</g>
</g> 
</svg>
