<?xml version="1.0" standalone="no"?>
 <!DOCTYPE svg PUBLIC "-//W3C//DTD SVG 1.1//EN" 
 "http://www.w3.org/Graphics/SVG/1.1/DTD/svg11.dtd"> 
<svg
  xmlns:svg="http://www.w3.org/2000/svg"
  xmlns="http://www.w3.org/2000/svg"
  xmlns:xlink="http://www.w3.org/1999/xlink"
  version="1.1"
  width="17.988280cm" height="8.463280cm" viewBox="0 0 70820 33320">
<title>SVG Picture created as DropDN - redesign plate making-brd.svg date 2021/07/21 12:37:31 </title>
  <desc>Picture generated by PCBNEW </desc>
<g style="fill:#000000; fill-opacity:1;stroke:#000000; stroke-opacity:1;
stroke-linecap:round; stroke-linejoin:round;"
 transform="translate(0 0) scale(1 1)">
</g>
<g style="fill:#000000; fill-opacity:0.0; 
stroke:#000000; stroke-width:-0.000393701; stroke-opacity:1; 
stroke-linecap:round; stroke-linejoin:round;">
</g>
<g style="fill:#000000; fill-opacity:0.0; 
stroke:#000000; stroke-width:39.3701; stroke-opacity:1; 
stroke-linecap:round; stroke-linejoin:round;">
<path d="M610 33300
L34819 33300
" />
<circle cx="51816.6" cy="3300.94" r="393.701" /> 
<path d="M53461 19
L36000 19
" />
<path d="M62363 16660
L62359 19
" />
<path d="M53457 16660
L53461 19
" />
<circle cx="19004.1" cy="3300.94" r="393.701" /> 
<path d="M34819 19
L610 19
" />
<circle cx="6816.57" cy="3300.94" r="393.701" /> 
<path d="M36000 33300
L70210 33300
" />
<path d="M70800 32710
L70800 610
" />
<path d="M70210 19
L62359 19
" />
<path d="M34819.8 19.6854 A590.551 590.551 0.0 0 0 36000.9 19.6854" />
<path d="M36000.9 33301 A590.551 590.551 0.0 0 0 34819.8 33301" />
<path d="M610.237 33301 A590.551 590.551 0.0 0 0 19.6854 32710.4" />
<path d="M70801 32710.4 A590.551 590.551 0.0 0 0 70210.4 33301" />
<path d="M19.6854 610.237 A590.551 590.551 0.0 0 0 610.237 19.6854" />
<path d="M70210.4 19.6854 A590.551 590.551 0.0 0 0 70801 610.237" />
<path d="M19 610
L19 32710
" />
<path d="M53457 16660
L62363 16660
" />
<circle cx="64004.1" cy="3300.94" r="393.701" /> 
<g >
</g>
<g >
</g>
<g >
</g>
</g> 
</svg>
